<svg xmlns="http://www.w3.org/2000/svg" width="23.996" height="21.913" viewBox="0 0 23.996 21.913">
  <path id="_24gf_store_white" data-name="24gf_store_white" d="M45.8,95.768a3.134,3.134,0,0,1-3.13-3.13.519.519,0,0,1,.049-.219l2.71-5.873a2.093,2.093,0,0,1,1.9-1.212h1.531L47.5,95.266a3.072,3.072,0,0,1-.277.161,3.141,3.141,0,0,1-1.423.341Zm2.752-.341a3.134,3.134,0,0,0,3.106-.15q.1-.063.192-.134l.694-9.81H49.9L48.53,95.417Zm18.07-3.008-2.711-5.873a2.093,2.093,0,0,0-1.9-1.212H60.482l1.354,9.933a3.076,3.076,0,0,0,.277.161,3.132,3.132,0,0,0,4.553-2.789.519.519,0,0,0-.047-.22ZM54.667,95.768a3.121,3.121,0,0,0,1.684-.491c.033-.021.064-.042.1-.063l-.7-9.88H53.587l-.7,9.88.1.063a3.121,3.121,0,0,0,1.68.491Zm3.012-.491a3.134,3.134,0,0,0,3.106.15l.019-.01L59.429,85.333H56.792l.694,9.81Q57.58,95.214,57.679,95.277Zm7.944,2.056v7.826a2.089,2.089,0,0,1-2.087,2.087H61.971a.522.522,0,0,1-.522-.522v-5.739a2.087,2.087,0,0,0-4.174,0v5.739a.522.522,0,0,1-.522.522H45.8a2.089,2.089,0,0,1-2.087-2.087V97.333a.522.522,0,0,1,.835-.417A2.087,2.087,0,0,0,47.47,96.5a.522.522,0,0,1,.834,0,2.087,2.087,0,0,0,3.548-.342.522.522,0,0,1,.938,0,2.088,2.088,0,0,0,3.757,0,.522.522,0,0,1,.938,0,2.087,2.087,0,0,0,3.548.342.522.522,0,0,1,.834,0,2.087,2.087,0,0,0,2.922.418.522.522,0,0,1,.835.417ZM53.1,98.9H47.884v4.174H53.1Z" transform="translate(-42.67 -85.333)" fill="#fff"/>
</svg>
