<svg data-name="组件 217 – 2" xmlns="http://www.w3.org/2000/svg" width="24" height="24" viewBox="0 0 24 24">
    <path data-name="矩形 17596" style="fill:none" d="M0 0h24v24H0z"/>
    <path data-name="路径 83179" d="M238.581 34.7a5.716 5.716 0 1 1 5.854-5.714 5.785 5.785 0 0 1-5.854 5.714zm0-1.429a4.287 4.287 0 1 0-4.39-4.286 4.339 4.339 0 0 0 4.39 4.288z" transform="translate(-226.581 -21.31)" style="fill:#fff"/>
    <path data-name="路径 83180" d="M52.909 520.357a.659.659 0 0 1-1.317 0c0-3.9-3.432-7.071-7.683-7.071s-7.683 3.174-7.683 7.071a.659.659 0 0 1-1.317 0c0-4.623 4.037-8.357 9-8.357s9 3.734 9 8.357z" transform="translate(-31.909 -500.037)" style="fill:#fff"/>
    <path data-name="路径 83191" d="M-7614.4 2748.6c-2 2.816-4.353 0-4.353 0" transform="translate(7628.619 -2740)" style="stroke:#ff791f;stroke-linecap:round;stroke-width:1.5px;fill:none"/>
</svg>
