<svg xmlns="http://www.w3.org/2000/svg" xmlns:xlink="http://www.w3.org/1999/xlink" width="345" height="136" viewBox="0 0 345 136">
    <defs>
        <linearGradient id="wtvrmax5wb" x1=".5" x2=".5" y2="1" gradientUnits="objectBoundingBox">
            <stop offset="0" stop-color="#f7efb9"/>
            <stop offset="1" stop-color="#ede6be"/>
        </linearGradient>
        <linearGradient id="0a9733yu0d" x1=".5" x2=".5" y2=".632" gradientUnits="objectBoundingBox">
            <stop offset="0" stop-color="#ef7b3e"/>
            <stop offset="1" stop-color="#f65d11"/>
        </linearGradient>
        <linearGradient id="ke931xeggc" x1=".206" y1=".611" x2=".438" y2=".469" gradientUnits="objectBoundingBox">
            <stop offset="0" stop-color="#fff" stop-opacity=".902"/>
            <stop offset="1" stop-color="#fff" stop-opacity="0"/>
        </linearGradient>
        <linearGradient id="wm57w2y9gf" x1=".185" y1=".517" x2=".385" y2=".831" xlink:href="#ke931xeggc"/>
        <linearGradient id="4avwm4egcg" x1=".5" y1=".074" x2=".5" y2=".831" gradientUnits="objectBoundingBox">
            <stop offset="0" stop-color="#121212"/>
            <stop offset="1" stop-color="#3f4245"/>
        </linearGradient>
        <filter id="ljhgjqoh3a">
            <feOffset dy="3"/>
            <feGaussianBlur stdDeviation="3" result="blur"/>
            <feFlood flood-color="#fff" result="color"/>
            <feComposite operator="out" in="SourceGraphic" in2="blur"/>
            <feComposite operator="in" in="color"/>
            <feComposite operator="in" in2="SourceGraphic"/>
        </filter>
        <filter id="gwxr7acsyh">
            <feOffset dy="3"/>
            <feGaussianBlur stdDeviation="1" result="blur-2"/>
            <feFlood flood-color="#747474" result="color-2"/>
            <feComposite operator="out" in="SourceGraphic" in2="blur-2"/>
            <feComposite operator="in" in="color-2"/>
            <feComposite operator="in" in2="SourceGraphic"/>
        </filter>
        <clipPath id="ws29mkj0ze"/>
    </defs>
    <g data-name="组 49627">
        <path data-name="路径 83222" d="m1887 552-8 13.575h345L2215.9 552z" transform="translate(-1879 -511)" style="fill:#313233"/>
        <g data-name="组 49626" transform="translate(-15 -144)">
            <rect data-name="矩形 17605" width="330" height="100" rx="4" transform="translate(23 144)" style="fill:url(#0a9733yu0d)"/>
            <g data-name="蒙版组 19" style="clip-path:url(#ws29mkj0ze)">
                <path data-name="路径 83226" d="M100 0h137L67 130H-70z" transform="translate(188 114)" style="fill:url(#ke931xeggc);opacity:.4"/>
                <path data-name="路径 83227" d="M100 0h97v130H-70z" transform="translate(247 114)" style="fill:url(#wm57w2y9gf);opacity:.4"/>
            </g>
        </g>
        <g data-type="innerShadowGroup">
            <g data-name="路径 83223" transform="translate(0 54)" style="fill:url(#4avwm4egcg)">
                <path d="M339 81.5H6c-3.033 0-5.5-2.572-5.5-5.732V.858L172.535-9.5 344.5.858v74.91c0 3.16-2.467 5.732-5.5 5.732z" style="stroke:none"/>
                <path d="M172.535-8.998 1 1.329v74.439C1 78.653 3.243 81 6 81h333c2.757 0 5-2.347 5-5.232V1.328L172.535-8.997m0-1.002L345 .387v75.38c0 3.443-2.686 6.233-6 6.233H6c-3.314 0-6-2.79-6-6.232V.388L172.535-10z" style="stroke:none"/>
            </g>
            <g style="filter:url(#gwxr7acsyh)">
                <g data-name="路径 83223" style="fill:#fff">
                    <path d="M339 81.5H6c-3.033 0-5.5-2.572-5.5-5.732V.858L172.535-9.5 344.5.858v74.91c0 3.16-2.467 5.732-5.5 5.732z" style="stroke:none" transform="translate(0 54)"/>
                    <path d="M172.535-8.998 1 1.329v74.439C1 78.653 3.243 81 6 81h333c2.757 0 5-2.347 5-5.232V1.328L172.535-8.997m0-1.002L345 .387v75.38c0 3.443-2.686 6.233-6 6.233H6c-3.314 0-6-2.79-6-6.232V.388L172.535-10z" style="stroke:none" transform="translate(0 54)"/>
                </g>
            </g>
            <g data-name="路径 83223" style="fill:none">
                <path d="M339 81.5H6c-3.033 0-5.5-2.572-5.5-5.732V.858L172.535-9.5 344.5.858v74.91c0 3.16-2.467 5.732-5.5 5.732z" style="stroke:none" transform="translate(0 54)"/>
                <path d="M172.535-8.998 1 1.329v74.439C1 78.653 3.243 81 6 81h333c2.757 0 5-2.347 5-5.232V1.328L172.535-8.997m0-1.002L345 .387v75.38c0 3.443-2.686 6.233-6 6.233H6c-3.314 0-6-2.79-6-6.232V.388L172.535-10z" style="fill:#3f4245;stroke:none" transform="translate(0 54)"/>
            </g>
        </g>
    </g>
</svg>
