<svg xmlns="http://www.w3.org/2000/svg" xmlns:xlink="http://www.w3.org/1999/xlink" width="54.923" height="55.11" viewBox="0 0 54.923 55.11">
  <defs>
    <linearGradient id="linear-gradient" x1="0.827" y1="0.619" x2="1" y2="0.957" gradientUnits="objectBoundingBox">
      <stop offset="0" stop-color="#f9df7b"/>
      <stop offset="1" stop-color="#fffbe1"/>
    </linearGradient>
    <linearGradient id="linear-gradient-2" x1="0.917" y1="0.402" x2="0.197" y2="0.614" gradientUnits="objectBoundingBox">
      <stop offset="0" stop-color="#8c5f06"/>
      <stop offset="0.562" stop-color="#fff3a6"/>
      <stop offset="1" stop-color="#8c5f06"/>
    </linearGradient>
    <filter id="路径_64013" x="0" y="0" width="54.923" height="55.11" filterUnits="userSpaceOnUse">
      <feOffset dy="5" input="SourceAlpha"/>
      <feGaussianBlur stdDeviation="3" result="blur"/>
      <feFlood flood-color="#795810" flood-opacity="0.235"/>
      <feComposite operator="in" in2="blur"/>
      <feComposite in="SourceGraphic"/>
    </filter>
    <clipPath id="clip-path">
      <ellipse id="椭圆_384" data-name="椭圆 384" cx="18.462" cy="18.555" rx="18.462" ry="18.555" fill="url(#linear-gradient)"/>
    </clipPath>
    <linearGradient id="linear-gradient-4" x1="0.386" y1="0.573" x2="0.579" y2="0.648" gradientUnits="objectBoundingBox">
      <stop offset="0" stop-color="#fff" stop-opacity="0.8"/>
      <stop offset="1" stop-color="#fff" stop-opacity="0.078"/>
    </linearGradient>
    <filter id="路径_64007" x="11.46" y="5.179" width="32.769" height="29.813" filterUnits="userSpaceOnUse">
      <feOffset dy="1" input="SourceAlpha"/>
      <feGaussianBlur stdDeviation="2" result="blur-2"/>
      <feFlood flood-color="#b1790a"/>
      <feComposite operator="in" in2="blur-2"/>
      <feComposite in="SourceGraphic"/>
    </filter>
  </defs>
  <g id="组_49326" data-name="组 49326" transform="translate(9 1.879)">
    <g transform="matrix(1, 0, 0, 1, -9, -1.88)" filter="url(#路径_64013)">
      <path id="路径_64013-2" data-name="路径 64013" d="M18.462,0A18.555,18.555,0,1,1,0,18.555,18.508,18.508,0,0,1,18.462,0Z" transform="translate(9 4)" fill="url(#linear-gradient-2)"/>
    </g>
    <ellipse id="椭圆_351" data-name="椭圆 351" cx="18.462" cy="18.555" rx="18.462" ry="18.555" fill="url(#linear-gradient)"/>
    <g id="蒙版组_18" data-name="蒙版组 18" clip-path="url(#clip-path)">
      <path id="路径_83224" data-name="路径 83224" d="M30.963-3.433.225,43.983H37.4V-3.433Z" transform="translate(0.035 -0.558)" fill="url(#linear-gradient-4)"/>
      <g id="钱包" transform="translate(8.46 8.299)">
        <g transform="matrix(1, 0, 0, 1, -17.46, -10.18)" filter="url(#路径_64007)">
          <path id="路径_64007-2" data-name="路径 64007" d="M83.393,125.928a1.83,1.83,0,0,1,.227.016,1.545,1.545,0,0,0-.718-.312l-14.755-2.369a1.577,1.577,0,0,0-1.805,1.314l-.216,1.353H83.393Zm1.576,2.329a1.579,1.579,0,0,0-1.576-1.584H65.776a1.579,1.579,0,0,0-1.576,1.584v11.215a1.579,1.579,0,0,0,1.576,1.584H83.391a1.579,1.579,0,0,0,1.576-1.584v-3.012H78.872a2.825,2.825,0,0,1,0-5.651h6.095v-2.553Z" transform="translate(-46.74 -113.06)" fill="#fff"/>
        </g>
        <path id="路径_64008" data-name="路径 64008" d="M676.241,535.834a.794.794,0,1,0,.59-.96A.793.793,0,0,0,676.241,535.834Z" transform="translate(-662.179 -525.362)" fill="#fff"/>
      </g>
    </g>
  </g>
</svg>
