<svg id="arrow-right" xmlns="http://www.w3.org/2000/svg" width="18" height="18" viewBox="0 0 18 18">
  <rect id="矩形_17528" data-name="矩形 17528" width="18" height="18" fill="none"/>
  <path id="down" d="M16.375,218.645a.847.847,0,0,0,1.174.037c.013-.013.026-.025.038-.037l5.139-5.25a.885.885,0,0,0,.25-.62.865.865,0,0,0-.856-.875.853.853,0,0,0-.6.256l-4.545,4.631-4.534-4.631a.853.853,0,0,0-.607-.256.865.865,0,0,0-.856.875.885.885,0,0,0,.25.62Z" transform="translate(-205.9 25.977) rotate(-90)" fill="#bababa" opacity="0.9"/>
</svg>
