<svg xmlns="http://www.w3.org/2000/svg" xmlns:xlink="http://www.w3.org/1999/xlink" width="54.923" height="55.11" viewBox="0 0 54.923 55.11">
  <defs>
    <linearGradient id="linear-gradient" x1="0.827" y1="0.619" x2="1" y2="0.957" gradientUnits="objectBoundingBox">
      <stop offset="0" stop-color="#f9df7b"/>
      <stop offset="1" stop-color="#fffbe1"/>
    </linearGradient>
    <linearGradient id="linear-gradient-2" x1="0.917" y1="0.402" x2="0.197" y2="0.614" gradientUnits="objectBoundingBox">
      <stop offset="0" stop-color="#8c5f06"/>
      <stop offset="0.562" stop-color="#fff3a6"/>
      <stop offset="1" stop-color="#8c5f06"/>
    </linearGradient>
    <filter id="路径_64013" x="0" y="0" width="54.923" height="55.11" filterUnits="userSpaceOnUse">
      <feOffset dy="5" input="SourceAlpha"/>
      <feGaussianBlur stdDeviation="3" result="blur"/>
      <feFlood flood-color="#795810" flood-opacity="0.235"/>
      <feComposite operator="in" in2="blur"/>
      <feComposite in="SourceGraphic"/>
    </filter>
    <clipPath id="clip-path">
      <ellipse id="椭圆_384" data-name="椭圆 384" cx="18.462" cy="18.696" rx="18.462" ry="18.696" fill="url(#linear-gradient)"/>
    </clipPath>
    <linearGradient id="linear-gradient-4" x1="0.386" y1="0.573" x2="0.579" y2="0.648" gradientUnits="objectBoundingBox">
      <stop offset="0" stop-color="#fff" stop-opacity="0.8"/>
      <stop offset="1" stop-color="#fff" stop-opacity="0.078"/>
    </linearGradient>
    <filter id="路径_83225" x="12.349" y="4.513" width="32.769" height="32.082" filterUnits="userSpaceOnUse">
      <feOffset dy="1" input="SourceAlpha"/>
      <feGaussianBlur stdDeviation="2" result="blur-2"/>
      <feFlood flood-color="#b1790a"/>
      <feComposite operator="in" in2="blur-2"/>
      <feComposite in="SourceGraphic"/>
    </filter>
  </defs>
  <g id="组_49325" data-name="组 49325" transform="translate(9 1.879)">
    <g transform="matrix(1, 0, 0, 1, -9, -1.88)" filter="url(#路径_64013)">
      <path id="路径_64013-2" data-name="路径 64013" d="M18.462,0A18.555,18.555,0,1,1,0,18.555,18.508,18.508,0,0,1,18.462,0Z" transform="translate(9 4)" fill="url(#linear-gradient-2)"/>
    </g>
    <ellipse id="椭圆_351" data-name="椭圆 351" cx="18.462" cy="18.555" rx="18.462" ry="18.555" fill="url(#linear-gradient)"/>
    <g id="蒙版组_18" data-name="蒙版组 18" clip-path="url(#clip-path)">
      <path id="路径_83224" data-name="路径 83224" d="M30.963-3.433.225,43.983H37.4V-3.433Z" transform="translate(0.035 -0.558)" fill="url(#linear-gradient-4)"/>
      <g transform="matrix(1, 0, 0, 1, -9, -1.88)" filter="url(#路径_83225)">
        <path id="路径_83225-2" data-name="路径 83225" d="M243.613,192.229H229.965a.869.869,0,0,0-.866.87v.108a.869.869,0,0,0,.866.87h13.649a.869.869,0,0,0,.866-.87V193.1A.869.869,0,0,0,243.613,192.229Zm4.809-7.619-7.308-2.858.951-2.454a1.06,1.06,0,0,0,1.319-.627,1.072,1.072,0,0,0-.606-1.384l-8.235-3.218a1.068,1.068,0,0,0-.771,1.993l.038.015-3.472,8.969a1.061,1.061,0,0,0-1.332.624,1.072,1.072,0,0,0,.606,1.384l8.235,3.22a1.068,1.068,0,0,0,.771-1.993l-.025-.01.977-2.523,7.308,2.858a2,2,0,0,0,2.6-1.149l.091-.235A2.021,2.021,0,0,0,248.423,184.61Zm-12.711-5.119-1.616,4.29a.838.838,0,0,1-.8.544.821.821,0,0,1-.279-.055.842.842,0,0,1-.486-1.086l1.616-4.292a.838.838,0,0,1,1.08-.49A.85.85,0,0,1,235.711,179.491Z" transform="translate(-210.58 -164.48)" fill="#fff"/>
      </g>
    </g>
  </g>
</svg>
