<svg xmlns="http://www.w3.org/2000/svg" width="16" height="16" viewBox="0 0 16 16">
  <g id="ball" transform="translate(-6 -12)">
    <path id="路径_83238" data-name="路径 83238" d="M76.267,68.267a8,8,0,1,0,8,8A8,8,0,0,0,76.267,68.267Zm-1.6,13.2a4.8,4.8,0,1,1,4.8-4.8A4.8,4.8,0,0,1,74.667,81.467Zm5.5-8.5c-.86-.86-1.3-1.812-.98-2.128s1.268.12,2.128.98,1.3,1.812.98,2.128S81.027,73.827,80.167,72.967Z" transform="translate(-62.267 -56.267)" fill="#fff"/>
    <path id="路径_83239" data-name="路径 83239" d="M318.536,381.928a1.4,1.4,0,0,0,1.14-1.32c-.072-.9-.736-1.4-2-1.5a2.007,2.007,0,0,0-2.1,1.856,1.572,1.572,0,0,0,1.072,1.6,1.678,1.678,0,0,0-1.252,1.5c.072.928.772,1.416,2.108,1.46q2.324-.064,2.428-1.82a1.839,1.839,0,0,0-1.4-1.776Zm-.86-2.464c.668.024,1.012.4,1.036,1.144a1.288,1.288,0,0,1-.536,1.108q-1.464-.612-1.392-1.4a.872.872,0,0,1,.892-.856Zm-.1,5.78a1.2,1.2,0,0,1-1.2-1.32,1.256,1.256,0,0,1,.644-1.108.328.328,0,0,1,.176.072.1.1,0,0,0,.072.036l.584.32c.524.264.772.6.748,1a1.02,1.02,0,0,1-1.024,1Z" transform="translate(-305.048 -361.644)" fill="#fff"/>
  </g>
</svg>
