<svg xmlns="http://www.w3.org/2000/svg" xmlns:xlink="http://www.w3.org/1999/xlink" width="32" height="32" viewBox="0 0 32 32">
  <defs>
    <filter id="银行" x="0.429" y="2.293" width="30.851" height="29.704" filterUnits="userSpaceOnUse">
      <feOffset dy="1" input="SourceAlpha"/>
      <feGaussianBlur stdDeviation="2.5" result="blur"/>
      <feFlood flood-color="#5c2e2e" flood-opacity="0.749"/>
      <feComposite operator="in" in2="blur"/>
      <feComposite in="SourceGraphic"/>
    </filter>
  </defs>
  <g id="bank_icon" transform="translate(0 0.282)">
    <circle id="椭圆_369" data-name="椭圆 369" cx="16" cy="16" r="16" transform="translate(0 -0.282)" fill="#b45645"/>
    <g transform="matrix(1, 0, 0, 1, 0, -0.28)" filter="url(#银行)">
      <path id="银行-2" data-name="银行" d="M119.468,136.845l-7.214-3.16-.026-.012a1.153,1.153,0,0,0-.5-.157h-.026a1.189,1.189,0,0,0-.5.157.1.1,0,0,1-.026.012l-7.2,3.16a.326.326,0,0,0-.2.3v.382a.236.236,0,0,0,.236.236h.778a.234.234,0,0,1,.228.172.527.527,0,0,0,.576.346h12.214a.521.521,0,0,0,.576-.346.234.234,0,0,1,.228-.172h.778a.236.236,0,0,0,.236-.236v-.357a.242.242,0,0,1,0-.038.29.29,0,0,0-.171-.284Zm-.518,9.927H104.508a.521.521,0,0,0-.542.542v.671a.236.236,0,0,0,.236.236h15.051a.236.236,0,0,0,.236-.236v-.671a.516.516,0,0,0-.539-.542Zm-12.877-7.7v6.108h-.618a.532.532,0,0,0-.528.516v.292a.236.236,0,0,0,.236.236h13.16a.236.236,0,0,0,.236-.236v-.271a.074.074,0,0,0,0-.022.531.531,0,0,0-.528-.516h-.618v-6.108a.236.236,0,0,0-.236-.236H115.66a.236.236,0,0,0-.236.236v6.108h-1.216v-6.108a.236.236,0,0,0-.236-.236h-1.506a.236.236,0,0,0-.236.236V145.2h-.983v-6.12a.236.236,0,0,0-.236-.236h-1.506a.236.236,0,0,0-.236.236v6.108h-1.207v-6.108a.236.236,0,0,0-.236-.236h-1.506a.237.237,0,0,0-.247.235Zm0-.236" transform="translate(-95.86 -124.72)" fill="#fff"/>
    </g>
  </g>
</svg>
