<svg xmlns="http://www.w3.org/2000/svg" width="24" height="22.254" viewBox="0 0 24 22.254">
  <path id="bank_white" d="M127.516,138.554,116.6,133.772l-.039-.018a1.745,1.745,0,0,0-.745-.237h-.039a1.807,1.807,0,0,0-.748.237.155.155,0,0,1-.039.018l-10.89,4.782a.493.493,0,0,0-.307.457v.577a.357.357,0,0,0,.358.358h1.178a.355.355,0,0,1,.346.261c.147.562.772.529.872.523h18.485a.789.789,0,0,0,.872-.523.355.355,0,0,1,.346-.261h1.178a.357.357,0,0,0,.358-.358v-.547a.37.37,0,0,1,.006-.057A.439.439,0,0,0,127.516,138.554Zm-.784,15.022H104.877a.789.789,0,0,0-.821.821v1.016a.357.357,0,0,0,.358.358h22.777a.357.357,0,0,0,.358-.358V154.4a.781.781,0,0,0-.817-.824Zm-19.486-11.647v9.243h-.935a.8.8,0,0,0-.8.781v.442a.357.357,0,0,0,.358.358h19.916a.357.357,0,0,0,.358-.358v-.409a.113.113,0,0,0,0-.033.8.8,0,0,0-.8-.781H124.4v-9.243a.357.357,0,0,0-.358-.358h-2.3a.357.357,0,0,0-.358.358v9.243h-1.833v-9.243a.357.357,0,0,0-.358-.358h-2.278a.357.357,0,0,0-.358.358v9.261h-1.488v-9.261a.357.357,0,0,0-.358-.358H112.44a.357.357,0,0,0-.358.358v9.243h-1.833v-9.243a.357.357,0,0,0-.358-.358h-2.278a.359.359,0,0,0-.367.358Zm0-.358" transform="translate(-103.793 -133.517)" fill="#fff"/>
</svg>
