<svg xmlns="http://www.w3.org/2000/svg" xmlns:xlink="http://www.w3.org/1999/xlink" width="60" height="42" viewBox="0 0 60 42">
  <defs>
    <linearGradient id="linear-gradient" x1="0.5" x2="0.5" y2="1" gradientUnits="objectBoundingBox">
      <stop offset="0" stop-color="#f9df7b"/>
      <stop offset="1" stop-color="#fffbe1"/>
    </linearGradient>
    <linearGradient id="linear-gradient-2" y1="0.5" x2="0.972" y2="0.5" gradientUnits="objectBoundingBox">
      <stop offset="0" stop-color="#8c5f06"/>
      <stop offset="0.251" stop-color="#fff3a6"/>
      <stop offset="0.527" stop-color="#8c5f06"/>
      <stop offset="0.759" stop-color="#fff3a6"/>
      <stop offset="1" stop-color="#8c5f06"/>
    </linearGradient>
    <clipPath id="clip-path">
      <rect id="矩形_101" data-name="矩形 101" width="60" height="40" rx="10" fill="url(#linear-gradient)"/>
    </clipPath>
    <linearGradient id="linear-gradient-4" x2="1" y2="1" gradientUnits="objectBoundingBox">
      <stop offset="0" stop-color="#fff"/>
      <stop offset="1" stop-color="#fff" stop-opacity="0"/>
    </linearGradient>
    <linearGradient id="linear-gradient-5" x1="0.5" x2="0.5" y2="1" gradientUnits="objectBoundingBox">
      <stop offset="0" stop-color="#573b02"/>
      <stop offset="0.495" stop-color="#c7a889"/>
      <stop offset="1" stop-color="#573b02"/>
    </linearGradient>
  </defs>
  <g id="组_50692" data-name="组 50692" transform="translate(-937 -918)">
    <g id="组件_8_186" data-name="组件 8 – 186" transform="translate(937 918)">
      <g id="组件_4_14" data-name="组件 4 – 14">
        <rect id="矩形_59" data-name="矩形 59" width="60" height="40" rx="8" transform="translate(0 2)" fill="url(#linear-gradient-2)"/>
        <rect id="矩形_58" data-name="矩形 58" width="60" height="40" rx="10" fill="url(#linear-gradient)"/>
      </g>
      <g id="蒙版组_15" data-name="蒙版组 15" transform="translate(0 1)" clip-path="url(#clip-path)">
        <path id="路径_297" data-name="路径 297" d="M6.042,6.042,58.914,13.6l7.553,52.871L13.6,58.914Z" transform="translate(30 -51.272) rotate(45)" fill="url(#linear-gradient-4)"/>
      </g>
    </g>
    <text id="電競" transform="translate(962 944)" fill="#333" font-size="14" font-family="PingFangTC-Regular, PingFang TC"><tspan x="0" y="0">電競</tspan></text>
    <g id="_ic_電競" data-name="@ic_電競" transform="translate(944 931)">
      <rect id="矩形_17667" data-name="矩形 17667" width="16" height="16" fill="none"/>
      <path id="game-controller" d="M16.353,157.385a.407.407,0,0,1-.058,0l-.055-.008a.405.405,0,0,1-.055-.014.294.294,0,0,1-.053-.019l-.053-.025a.482.482,0,0,1-.05-.03l-.047-.033a.822.822,0,0,1-.08-.08c-.011-.014-.022-.03-.033-.047s-.019-.033-.03-.05-.017-.033-.025-.053a.522.522,0,0,1-.033-.108c0-.019-.006-.039-.008-.055a.611.611,0,0,1,0-.116c0-.019.006-.039.008-.055a.4.4,0,0,1,.014-.055.3.3,0,0,1,.019-.053l.025-.053a.481.481,0,0,1,.03-.05l.033-.047a.276.276,0,0,1,.039-.041.529.529,0,0,1,.041-.039c.014-.011.03-.022.047-.033l.05-.03.053-.025c.019-.008.036-.014.053-.019a.4.4,0,0,1,.055-.014l.055-.008a.612.612,0,0,1,.116,0l.055.008a.4.4,0,0,1,.055.014.3.3,0,0,1,.053.019l.053.025a.484.484,0,0,1,.05.03l.047.033a.529.529,0,0,1,.041.039.537.537,0,0,1,.039.041c.011.014.022.03.033.047s.019.033.03.05.017.033.025.053a.523.523,0,0,1,.033.108c0,.019.006.039.008.055a.611.611,0,0,1,0,.116c0,.019-.006.039-.008.055a.539.539,0,0,1-.014.055.3.3,0,0,1-.019.053l-.025.053a.481.481,0,0,1-.03.05l-.033.047a.821.821,0,0,1-.08.08c-.014.011-.03.022-.047.033l-.05.03-.053.025a.527.527,0,0,1-.108.033l-.055.008A.426.426,0,0,1,16.353,157.385ZM15.07,156.1a.411.411,0,0,1-.058,0l-.055-.008a.539.539,0,0,1-.055-.014.3.3,0,0,1-.053-.019l-.053-.025a.479.479,0,0,1-.05-.03l-.047-.033a.523.523,0,0,1-.041-.039.531.531,0,0,1-.039-.041c-.011-.014-.022-.03-.033-.047s-.019-.033-.03-.05-.017-.033-.025-.053a.524.524,0,0,1-.033-.108c0-.019-.006-.039-.008-.055a.611.611,0,0,1,0-.116c0-.019.006-.039.008-.055a.4.4,0,0,1,.014-.055.294.294,0,0,1,.019-.053l.025-.053a.481.481,0,0,1,.03-.05l.033-.047a.822.822,0,0,1,.08-.08c.014-.011.03-.022.047-.033l.05-.03a.306.306,0,0,1,.053-.025.522.522,0,0,1,.108-.033l.055-.008a.612.612,0,0,1,.116,0l.055.008a.4.4,0,0,1,.055.014.294.294,0,0,1,.053.019l.053.025a.479.479,0,0,1,.05.03l.047.033a.822.822,0,0,1,.08.08c.011.014.022.03.033.047s.019.033.03.05.017.033.025.053a.524.524,0,0,1,.033.108c0,.019.006.039.008.055a.611.611,0,0,1,0,.116c0,.019-.006.039-.008.055a.4.4,0,0,1-.014.055.3.3,0,0,1-.019.053l-.025.053a.484.484,0,0,1-.03.05l-.033.047a.276.276,0,0,1-.039.041.523.523,0,0,1-.041.039c-.014.011-.03.022-.047.033l-.05.03-.053.025a.524.524,0,0,1-.108.033l-.055.008A.452.452,0,0,1,15.07,156.1Zm0,2.566a.407.407,0,0,1-.058,0l-.055-.008a.4.4,0,0,1-.055-.014.442.442,0,0,1-.055-.019l-.053-.025a.485.485,0,0,1-.05-.03l-.047-.033a.528.528,0,0,1-.041-.039.533.533,0,0,1-.039-.041c-.011-.014-.022-.03-.033-.047s-.019-.033-.03-.05-.017-.033-.025-.053a.325.325,0,0,1-.019-.055.4.4,0,0,1-.014-.055c0-.019-.006-.039-.008-.055a.611.611,0,0,1,0-.116c0-.019.006-.039.008-.055a.4.4,0,0,1,.014-.055.3.3,0,0,1,.019-.053l.025-.053a.484.484,0,0,1,.03-.05l.033-.047a.533.533,0,0,1,.039-.041.528.528,0,0,1,.041-.039c.014-.011.03-.022.047-.033l.05-.03.053-.025a.327.327,0,0,1,.055-.019.4.4,0,0,1,.055-.014l.055-.008a.612.612,0,0,1,.116,0l.055.008a.4.4,0,0,1,.055.014.3.3,0,0,1,.053.019l.053.025a.487.487,0,0,1,.05.03l.047.033a.528.528,0,0,1,.041.039.534.534,0,0,1,.039.041c.011.014.022.03.033.047s.019.033.03.05.017.033.025.053a.44.44,0,0,1,.019.055.4.4,0,0,1,.014.055c0,.019.006.039.008.055a.611.611,0,0,1,0,.116c0,.019-.006.039-.008.055a.4.4,0,0,1-.014.055.3.3,0,0,1-.019.053l-.025.053a.479.479,0,0,1-.03.05l-.033.047a.534.534,0,0,1-.039.041l-.041.039c-.014.011-.03.022-.047.033l-.05.03-.053.025a.523.523,0,0,1-.108.033l-.055.008A.407.407,0,0,1,15.07,158.668Zm-1.286-1.283a.407.407,0,0,1-.058,0l-.055-.008a.405.405,0,0,1-.055-.014.293.293,0,0,1-.053-.019l-.053-.025a.482.482,0,0,1-.05-.03l-.047-.033a.821.821,0,0,1-.08-.08c-.011-.014-.022-.03-.033-.047s-.019-.033-.03-.05-.017-.033-.025-.053a.523.523,0,0,1-.033-.108c0-.019-.006-.039-.008-.055a.611.611,0,0,1,0-.116c0-.019.006-.039.008-.055a.4.4,0,0,1,.014-.055.3.3,0,0,1,.019-.053l.025-.053a.481.481,0,0,1,.03-.05l.033-.047a.537.537,0,0,1,.039-.041.529.529,0,0,1,.041-.039c.014-.011.03-.022.047-.033l.05-.03.053-.025a.524.524,0,0,1,.108-.033l.055-.008a.612.612,0,0,1,.116,0l.055.008a.4.4,0,0,1,.055.014.3.3,0,0,1,.053.019l.053.025a.484.484,0,0,1,.05.03l.047.033a.528.528,0,0,1,.041.039.536.536,0,0,1,.039.041c.011.014.022.03.033.047s.019.033.03.05.017.033.025.053a.523.523,0,0,1,.033.108c0,.019.006.039.008.055a.611.611,0,0,1,0,.116c0,.019-.006.039-.008.055a.405.405,0,0,1-.014.055.3.3,0,0,1-.019.053l-.025.053a.481.481,0,0,1-.03.05l-.033.047a.821.821,0,0,1-.08.08c-.014.011-.03.022-.047.033l-.05.03-.053.025a.4.4,0,0,1-.053.019.405.405,0,0,1-.055.014l-.055.008A.407.407,0,0,1,13.784,157.385Zm-2.448-.116H10.4v.932a.268.268,0,0,1,0,.047c0,.017,0,.03-.006.044a.259.259,0,0,1-.011.044.456.456,0,0,1-.017.044.278.278,0,0,1-.019.041.186.186,0,0,1-.025.039.178.178,0,0,1-.028.036c-.011.011-.019.022-.03.033a.331.331,0,0,1-.033.03.313.313,0,0,1-.036.028l-.039.025a.278.278,0,0,1-.041.019l-.044.017a.259.259,0,0,1-.044.011.241.241,0,0,1-.044.006l-.047,0a.269.269,0,0,1-.047,0c-.017,0-.03,0-.044-.006a.259.259,0,0,1-.044-.011.461.461,0,0,1-.044-.017.278.278,0,0,1-.041-.019.185.185,0,0,1-.039-.025.178.178,0,0,1-.036-.028l-.033-.03a.333.333,0,0,1-.03-.033.316.316,0,0,1-.028-.036l-.025-.039a.279.279,0,0,1-.019-.041c-.006-.014-.011-.028-.017-.044a.259.259,0,0,1-.011-.044.243.243,0,0,1-.006-.044.253.253,0,0,1,0-.047v-.932H8.535a.269.269,0,0,1-.047,0c-.017,0-.03,0-.044-.006a.261.261,0,0,1-.044-.011.46.46,0,0,1-.044-.017.279.279,0,0,1-.041-.019.186.186,0,0,1-.039-.025.178.178,0,0,1-.036-.028l-.033-.03a.33.33,0,0,1-.03-.033.311.311,0,0,1-.028-.036l-.025-.039a.28.28,0,0,1-.019-.041c-.006-.014-.011-.028-.017-.044a.259.259,0,0,1-.011-.044.242.242,0,0,1-.006-.044c0-.014,0-.03,0-.047a.268.268,0,0,1,0-.047c0-.017,0-.03.006-.044a.258.258,0,0,1,.011-.044.459.459,0,0,1,.017-.044.279.279,0,0,1,.019-.041.186.186,0,0,1,.025-.039.178.178,0,0,1,.028-.036c.011-.011.019-.022.03-.033a.336.336,0,0,1,.033-.03.312.312,0,0,1,.036-.028l.039-.025a.278.278,0,0,1,.041-.019l.044-.017a.258.258,0,0,1,.044-.011.241.241,0,0,1,.044-.006.269.269,0,0,1,.047,0h.932V155.4a.268.268,0,0,1,0-.047c0-.017,0-.03.006-.044a.259.259,0,0,1,.011-.044.46.46,0,0,1,.017-.044c.008-.017.011-.028.019-.041a.185.185,0,0,1,.025-.039.178.178,0,0,1,.028-.036c.011-.011.019-.022.03-.033a.328.328,0,0,1,.033-.03.317.317,0,0,1,.036-.028l.039-.025a.278.278,0,0,1,.041-.019l.044-.017a.347.347,0,0,1,.044-.011.242.242,0,0,1,.044-.006.4.4,0,0,1,.094,0c.017,0,.03,0,.044.006a.261.261,0,0,1,.044.011.456.456,0,0,1,.044.017.278.278,0,0,1,.041.019.185.185,0,0,1,.039.025.179.179,0,0,1,.036.028l.033.03a.331.331,0,0,1,.03.033.315.315,0,0,1,.028.036l.025.039a.279.279,0,0,1,.019.041c.006.014.011.028.017.044a.259.259,0,0,1,.011.044.242.242,0,0,1,.006.044c0,.014,0,.03,0,.047v.935h.935a.269.269,0,0,1,.047,0c.017,0,.03,0,.044.006a.258.258,0,0,1,.044.011.459.459,0,0,1,.044.017.278.278,0,0,1,.041.019.186.186,0,0,1,.039.025.177.177,0,0,1,.036.028l.033.03a.331.331,0,0,1,.03.033.313.313,0,0,1,.028.036l.025.039a.279.279,0,0,1,.019.041c.006.014.011.028.017.044a.343.343,0,0,1,.011.044.242.242,0,0,1,.006.044c0,.014,0,.03,0,.047a.268.268,0,0,1,0,.047c0,.017,0,.03-.006.044a.259.259,0,0,1-.011.044.461.461,0,0,1-.017.044.28.28,0,0,1-.019.041.186.186,0,0,1-.025.039.177.177,0,0,1-.028.036c-.011.011-.019.022-.03.033a.33.33,0,0,1-.033.03.313.313,0,0,1-.036.028l-.039.025a.279.279,0,0,1-.041.019l-.044.017a.261.261,0,0,1-.044.011.242.242,0,0,1-.044.006Zm8.023.158c-.619-2.8-1.549-4.289-2.932-4.7a3.156,3.156,0,0,0-.893-.127,3.952,3.952,0,0,0-1.117.2,5.475,5.475,0,0,1-3.368,0,4.05,4.05,0,0,0-1.115-.2,3.388,3.388,0,0,0-.926.127c-1.374.407-2.3,1.9-2.932,4.7-.675,3.012-.34,4.912.932,5.351a1.659,1.659,0,0,0,.545.094,2.915,2.915,0,0,0,2.052-1.322c.539-.675,1.173-1.015,3.131-1.015,1.748,0,2.472.238,3.1,1.015a4.266,4.266,0,0,0,1.134,1.048,1.7,1.7,0,0,0,1.463.185,2.089,2.089,0,0,0,1.283-2.019A11.425,11.425,0,0,0,19.36,157.426Z" transform="translate(-4.735 -149.6)" fill="url(#linear-gradient-5)"/>
    </g>
  </g>
</svg>
