<svg xmlns="http://www.w3.org/2000/svg" xmlns:xlink="http://www.w3.org/1999/xlink" width="60" height="42" viewBox="0 0 60 42">
  <defs>
    <linearGradient id="linear-gradient" x1="0.5" y1="0.433" x2="0.5" y2="1" gradientUnits="objectBoundingBox">
      <stop offset="0" stop-color="#f9df7b"/>
      <stop offset="1" stop-color="#fffbe1"/>
    </linearGradient>
    <linearGradient id="linear-gradient-2" y1="0.5" x2="0.972" y2="0.5" gradientUnits="objectBoundingBox">
      <stop offset="0" stop-color="#8c5f06"/>
      <stop offset="0.251" stop-color="#fff3a6"/>
      <stop offset="0.527" stop-color="#8c5f06"/>
      <stop offset="0.759" stop-color="#fff3a6"/>
      <stop offset="1" stop-color="#8c5f06"/>
    </linearGradient>
    <clipPath id="clip-path">
      <rect id="矩形_101" data-name="矩形 101" width="60" height="40" rx="10" fill="url(#linear-gradient)"/>
    </clipPath>
    <linearGradient id="linear-gradient-4" x2="1" y2="1" gradientUnits="objectBoundingBox">
      <stop offset="0" stop-color="#fff"/>
      <stop offset="1" stop-color="#fff" stop-opacity="0"/>
    </linearGradient>
    <linearGradient id="linear-gradient-5" x1="0.5" x2="0.5" y2="1" gradientUnits="objectBoundingBox">
      <stop offset="0" stop-color="#573b02"/>
      <stop offset="0.495" stop-color="#c7a889"/>
      <stop offset="1" stop-color="#573b02"/>
    </linearGradient>
  </defs>
  <g id="组_50689" data-name="组 50689" transform="translate(-709 -918)">
    <g id="组件_8_174" data-name="组件 8 – 174" transform="translate(709 918)">
      <g id="组件_4_14" data-name="组件 4 – 14">
        <rect id="矩形_59" data-name="矩形 59" width="60" height="40" rx="8" transform="translate(0 2)" fill="url(#linear-gradient-2)"/>
        <rect id="矩形_58" data-name="矩形 58" width="60" height="40" rx="10" fill="url(#linear-gradient)"/>
      </g>
      <g id="蒙版组_15" data-name="蒙版组 15" transform="translate(0 1)" clip-path="url(#clip-path)">
        <path id="路径_297" data-name="路径 297" d="M6.042,6.042,58.914,13.6l7.553,52.871L13.6,58.914Z" transform="translate(30 -51.272) rotate(45)" fill="url(#linear-gradient-4)"/>
      </g>
    </g>
    <text id="棋牌" transform="translate(734 944)" fill="#333" font-size="14" font-family="PingFangTC-Regular, PingFang TC"><tspan x="0" y="0">棋牌</tspan></text>
    <g id="_ic_chess" data-name="@ic_chess" transform="translate(716 931)">
      <rect id="矩形_17663" data-name="矩形 17663" width="16" height="16" fill="none"/>
      <path id="排除_4" data-name="排除 4" d="M4439,9h-10a1,1,0,0,1-1-1V-4a1,1,0,0,1,1-1h10a1,1,0,0,1,1,1V8A1,1,0,0,1,4439,9Zm-5.346-5.995v0a2.225,2.225,0,0,1-.939,1.6v.253h2.572V4.6a2.229,2.229,0,0,1-.939-1.6,1.944,1.944,0,0,0,1.1.364,1.539,1.539,0,0,0,1.484-1.026,1.819,1.819,0,0,0-.884-2.012A6.118,6.118,0,0,1,4434-2a6.143,6.143,0,0,1-2.046,2.332,1.819,1.819,0,0,0-.885,2.012,1.539,1.539,0,0,0,1.484,1.026,1.945,1.945,0,0,0,1.1-.363Z" transform="translate(-4426 6)" fill="url(#linear-gradient-5)"/>
    </g>
  </g>
</svg>
