<svg xmlns="http://www.w3.org/2000/svg" xmlns:xlink="http://www.w3.org/1999/xlink" width="60" height="42" viewBox="0 0 60 42">
  <defs>
    <linearGradient id="linear-gradient" x1="0.5" x2="0.5" y2="1" gradientUnits="objectBoundingBox">
      <stop offset="0" stop-color="#f9df7b"/>
      <stop offset="1" stop-color="#fffbe1"/>
    </linearGradient>
    <linearGradient id="linear-gradient-2" y1="0.5" x2="0.972" y2="0.5" gradientUnits="objectBoundingBox">
      <stop offset="0" stop-color="#8c5f06"/>
      <stop offset="0.251" stop-color="#fff3a6"/>
      <stop offset="0.527" stop-color="#8c5f06"/>
      <stop offset="0.759" stop-color="#fff3a6"/>
      <stop offset="1" stop-color="#8c5f06"/>
    </linearGradient>
    <clipPath id="clip-path">
      <rect id="矩形_101" data-name="矩形 101" width="60" height="40" rx="10" fill="url(#linear-gradient)"/>
    </clipPath>
    <linearGradient id="linear-gradient-4" x2="1" y2="1" gradientUnits="objectBoundingBox">
      <stop offset="0" stop-color="#fff"/>
      <stop offset="1" stop-color="#fff" stop-opacity="0"/>
    </linearGradient>
    <linearGradient id="linear-gradient-5" x1="0.5" x2="0.5" y2="1" gradientUnits="objectBoundingBox">
      <stop offset="0" stop-color="#573b02"/>
      <stop offset="0.495" stop-color="#c7a889"/>
      <stop offset="1" stop-color="#573b02"/>
    </linearGradient>
  </defs>
  <g id="组_50691" data-name="组 50691" transform="translate(-861 -918)">
    <g id="组件_8_176" data-name="组件 8 – 176" transform="translate(861 918)">
      <g id="组件_4_14" data-name="组件 4 – 14">
        <rect id="矩形_59" data-name="矩形 59" width="60" height="40" rx="8" transform="translate(0 2)" fill="url(#linear-gradient-2)"/>
        <rect id="矩形_58" data-name="矩形 58" width="60" height="40" rx="10" fill="url(#linear-gradient)"/>
      </g>
      <g id="蒙版组_15" data-name="蒙版组 15" transform="translate(0 1)" clip-path="url(#clip-path)">
        <path id="路径_297" data-name="路径 297" d="M6.042,6.042,58.914,13.6l7.553,52.871L13.6,58.914Z" transform="translate(30 -51.272) rotate(45)" fill="url(#linear-gradient-4)"/>
      </g>
    </g>
    <text id="電子" transform="translate(886 944)" fill="#333" font-size="14" font-family="PingFangTC-Regular, PingFang TC"><tspan x="0" y="0">電子</tspan></text>
    <g id="_ic_game" data-name="@ic_game" transform="translate(868 931)">
      <rect id="矩形_17665" data-name="矩形 17665" width="16" height="16" fill="none"/>
      <path id="laohuji" d="M4.41,103.31c0-.665-.21-.875-.735-.91H.735q-.735,0-.735.84v9.66c0,.315.035.595.315.7H4.1c.315-.14.315-.455.315-.8V103.31Zm-3.29.035H3.605a1.423,1.423,0,0,1-1.155.91,1.463,1.463,0,0,1-1.61-.875C.98,103.38,1.05,103.345,1.12,103.345Zm-.245,9.38a1.481,1.481,0,0,1,2.695,0Zm2.66-5.495a5.5,5.5,0,0,0-.7,2.45c0,.385-.28.245-.455.245-.84.035-.875-.035-.665-.98a4.612,4.612,0,0,1,.945-1.785c-.385.1-.875-.42-1.155.385-.07.175-.42.07-.595.035-.21-.035-.14-.28-.14-.42-.035-.98-.035-.98.8-.98h1.4C3.605,106.18,3.85,106.635,3.535,107.23Zm5.67-3.92c0-.665-.21-.875-.735-.91H5.5q-.735,0-.735.84v9.625c0,.315.035.6.315.7h3.78c.315-.14.315-.455.315-.805C9.2,109.645,9.2,106.46,9.2,103.31Zm-3.325.035H8.4a1.423,1.423,0,0,1-1.155.91,1.463,1.463,0,0,1-1.61-.875,1.242,1.242,0,0,0,.245-.035Zm-.21,9.38a1.481,1.481,0,0,1,2.7,0Zm2.66-5.495a5.5,5.5,0,0,0-.7,2.45c0,.385-.28.245-.455.245-.84.035-.875-.035-.665-.98a4.612,4.612,0,0,1,.945-1.785c-.385.1-.875-.42-1.155.385-.07.175-.42.07-.595.035-.21-.07-.105-.28-.105-.455-.035-.98-.035-.98.805-.98h1.4c.6.035.84.49.525,1.085ZM14,103.31c0-.665-.21-.91-.735-.91H10.29q-.735,0-.735.84v9.625c0,.315.035.6.315.7h3.78c.315-.14.315-.455.315-.805C14,109.645,14,106.46,14,103.31Zm-3.325.035H13.16a1.423,1.423,0,0,1-1.155.91,1.463,1.463,0,0,1-1.61-.875C10.535,103.38,10.6,103.345,10.675,103.345Zm-.21,9.38a1.481,1.481,0,0,1,2.695,0Zm2.625-5.495a5.5,5.5,0,0,0-.7,2.45c0,.385-.28.245-.455.245-.84.035-.875-.035-.665-.98a4.612,4.612,0,0,1,.945-1.785c-.385.1-.875-.42-1.155.385-.07.175-.42.07-.6.035-.21-.035-.1-.28-.14-.42-.035-.98-.035-.98.805-.98h1.4C13.195,106.18,13.44,106.635,13.09,107.23Z" transform="translate(1 -100)" fill="url(#linear-gradient-5)"/>
    </g>
  </g>
</svg>
