<svg xmlns="http://www.w3.org/2000/svg" xmlns:xlink="http://www.w3.org/1999/xlink" width="60" height="42" viewBox="0 0 60 42">
  <defs>
    <linearGradient id="linear-gradient" x1="0.5" x2="0.5" y2="1" gradientUnits="objectBoundingBox">
      <stop offset="0" stop-color="#f9df7b"/>
      <stop offset="1" stop-color="#fffbe1"/>
    </linearGradient>
    <linearGradient id="linear-gradient-2" y1="0.5" x2="0.972" y2="0.5" gradientUnits="objectBoundingBox">
      <stop offset="0" stop-color="#8c5f06"/>
      <stop offset="0.251" stop-color="#fff3a6"/>
      <stop offset="0.527" stop-color="#8c5f06"/>
      <stop offset="0.759" stop-color="#fff3a6"/>
      <stop offset="1" stop-color="#8c5f06"/>
    </linearGradient>
    <linearGradient id="linear-gradient-3" y1="0.433" xlink:href="#linear-gradient"/>
    <clipPath id="clip-path">
      <rect id="矩形_101" data-name="矩形 101" width="60" height="40" rx="10" fill="url(#linear-gradient)"/>
    </clipPath>
    <linearGradient id="linear-gradient-4" x2="1" y2="1" gradientUnits="objectBoundingBox">
      <stop offset="0" stop-color="#fff"/>
      <stop offset="1" stop-color="#fff" stop-opacity="0"/>
    </linearGradient>
    <linearGradient id="linear-gradient-5" x1="0.5" x2="0.5" y2="1" gradientUnits="objectBoundingBox">
      <stop offset="0" stop-color="#573b02"/>
      <stop offset="0.495" stop-color="#c7a889"/>
      <stop offset="1" stop-color="#573b02"/>
    </linearGradient>
  </defs>
  <g id="组_50690" data-name="组 50690" transform="translate(-785 -918)">
    <g id="组件_8_175" data-name="组件 8 – 175" transform="translate(785 918)">
      <g id="组件_4_14" data-name="组件 4 – 14">
        <rect id="矩形_59" data-name="矩形 59" width="60" height="40" rx="8" transform="translate(0 2)" fill="url(#linear-gradient-2)"/>
        <rect id="矩形_58" data-name="矩形 58" width="60" height="40" rx="10" fill="url(#linear-gradient-3)"/>
      </g>
      <g id="蒙版组_15" data-name="蒙版组 15" transform="translate(0 1)" clip-path="url(#clip-path)">
        <path id="路径_297" data-name="路径 297" d="M6.042,6.042,58.914,13.6l7.553,52.871L13.6,58.914Z" transform="translate(30 -51.272) rotate(45)" fill="url(#linear-gradient-4)"/>
      </g>
    </g>
    <text id="彩票" transform="translate(810 944)" fill="#333" font-size="14" font-family="PingFangTC-Regular, PingFang TC"><tspan x="0" y="0">彩票</tspan></text>
    <g id="_ic_lottery" data-name="@ic_lottery" transform="translate(792 931)">
      <rect id="矩形_17664" data-name="矩形 17664" width="16" height="16" fill="none"/>
      <g id="彩票-2" data-name="彩票" transform="translate(-67.267 -67.267)">
        <path id="路径_83238" data-name="路径 83238" d="M75.267,68.267a7,7,0,1,0,7,7A7,7,0,0,0,75.267,68.267Zm-1.4,11.55a4.2,4.2,0,1,1,4.2-4.2,4.2,4.2,0,0,1-4.2,4.2Zm4.813-7.437c-.752-.753-1.137-1.586-.857-1.862s1.109.1,1.862.857,1.137,1.586.857,1.862S79.432,73.132,78.679,72.379Z" fill="url(#linear-gradient-5)"/>
        <path id="路径_83239" data-name="路径 83239" d="M318.143,381.575a1.228,1.228,0,0,0,1-1.155c-.063-.791-.644-1.228-1.75-1.312a1.756,1.756,0,0,0-1.841,1.624,1.375,1.375,0,0,0,.938,1.4,1.469,1.469,0,0,0-1.1,1.313c.063.812.676,1.239,1.845,1.277q2.033-.056,2.124-1.592A1.609,1.609,0,0,0,318.143,381.575Zm-.752-2.156c.585.021.885.35.906,1a1.127,1.127,0,0,1-.469.97q-1.281-.535-1.218-1.221a.763.763,0,0,1,.781-.749Zm-.091,5.057a1.046,1.046,0,0,1-1.05-1.155,1.1,1.1,0,0,1,.564-.97.287.287,0,0,1,.154.063.091.091,0,0,0,.063.032l.511.28c.458.231.676.522.654.875a.892.892,0,0,1-.9.875Z" transform="translate(-243.324 -306.06)" fill="url(#linear-gradient-5)"/>
      </g>
    </g>
  </g>
</svg>
