<svg xmlns="http://www.w3.org/2000/svg" xmlns:xlink="http://www.w3.org/1999/xlink" width="95" height="26" viewBox="0 0 95 26">
  <defs>
    <linearGradient id="linear-gradient" x1="0.881" y1="1.144" x2="0.182" y2="0.045" gradientUnits="objectBoundingBox">
      <stop offset="0" stop-color="#8c5f06"/>
      <stop offset="0.379" stop-color="#e6c98f"/>
      <stop offset="1" stop-color="#8c5f06"/>
    </linearGradient>
    <linearGradient id="linear-gradient-2" x1="0.254" y1="0.184" x2="0.822" y2="1.037" gradientUnits="objectBoundingBox">
      <stop offset="0" stop-color="#b98112"/>
      <stop offset="1" stop-color="#8c5f06"/>
    </linearGradient>
  </defs>
  <g id="组_49365" data-name="组 49365" transform="translate(-2)">
    <rect id="矩形_17613" data-name="矩形 17613" width="95" height="22" rx="11" transform="translate(2 4)" fill="url(#linear-gradient)"/>
    <g id="组_49360" data-name="组 49360" transform="translate(3 1)">
      <g id="组_399" data-name="组 399">
        <path id="矩形_58" data-name="矩形 58" d="M11.5,0H48a0,0,0,0,1,0,0V23a0,0,0,0,1,0,0H11.5A11.5,11.5,0,0,1,0,11.5v0A11.5,11.5,0,0,1,11.5,0Z" transform="translate(-1 -1)" fill="url(#linear-gradient-2)"/>
      </g>
    </g>
    <g id="组_49361" data-name="组 49361" transform="translate(49 1)">
      <g id="组_399-2" data-name="组 399">
        <g id="矩形_58-2" data-name="矩形 58" transform="translate(0 -1)" fill="#fff" stroke="#8d6007" stroke-width="1">
          <path d="M0,0H36.5A11.5,11.5,0,0,1,48,11.5v0A11.5,11.5,0,0,1,36.5,23H0a0,0,0,0,1,0,0V0A0,0,0,0,1,0,0Z" stroke="none"/>
          <path d="M.8.5H36.5a11,11,0,0,1,11,11v0a11,11,0,0,1-11,11H.8a.3.3,0,0,1-.3-.3V.8A.3.3,0,0,1,.8.5Z" fill="none"/>
        </g>
      </g>
    </g>
  </g>
</svg>
