<svg xmlns="http://www.w3.org/2000/svg" width="98.792" height="91.606" viewBox="0 0 98.792 91.606">
    <defs>
        <linearGradient id="mhb2cf2uaa" x1="1.021" y1="1.083" x2=".462" gradientUnits="objectBoundingBox">
            <stop offset="0" stop-color="#fff5b4" stop-opacity="0"/>
            <stop offset=".178" stop-color="#fff5b4" stop-opacity=".004"/>
            <stop offset="1" stop-color="#ffea9a"/>
        </linearGradient>
    </defs>
    <path d="m201.458 154.253-44.937-19.685c-.049-.025-.111-.049-.161-.074a7.181 7.181 0 0 0-3.068-.977h-.161a7.439 7.439 0 0 0-3.081.977.64.64 0 0 1-.161.074l-44.838 19.685a2.031 2.031 0 0 0-1.262 1.881v2.375a1.468 1.468 0 0 0 1.472 1.472h4.85a1.459 1.459 0 0 1 1.423 1.076c.606 2.314 3.18 2.178 3.588 2.153h76.091c.408.037 2.982.173 3.588-2.153a1.46 1.46 0 0 1 1.423-1.076h4.85a1.468 1.468 0 0 0 1.472-1.472v-2.252a1.515 1.515 0 0 1 .025-.235 1.806 1.806 0 0 0-1.113-1.769zm-3.229 61.838h-89.96a3.248 3.248 0 0 0-3.378 3.378v4.182a1.468 1.468 0 0 0 1.472 1.472h93.759a1.468 1.468 0 0 0 1.472-1.472v-4.182a3.215 3.215 0 0 0-3.366-3.379zm-80.211-47.943v38.045h-3.848a3.313 3.313 0 0 0-3.291 3.217c0 .049-.012.1-.012.136v1.683a1.468 1.468 0 0 0 1.472 1.472h81.98a1.468 1.468 0 0 0 1.472-1.472v-1.683a.463.463 0 0 0-.012-.136 3.313 3.313 0 0 0-3.291-3.217h-3.848v-38.046a1.468 1.468 0 0 0-1.472-1.472h-9.453a1.468 1.468 0 0 0-1.472 1.472v38.045H168.7v-38.045a1.468 1.468 0 0 0-1.472-1.472h-9.378a1.468 1.468 0 0 0-1.472 1.472v38.12h-6.124v-38.12a1.468 1.468 0 0 0-1.472-1.472H139.4a1.468 1.468 0 0 0-1.472 1.472v38.045h-7.547v-38.045a1.468 1.468 0 0 0-1.472-1.472h-9.378a1.477 1.477 0 0 0-1.513 1.472zm0-1.472" transform="translate(-103.789 -133.516)" style="fill:url(#mhb2cf2uaa)"/>
</svg>
