<svg xmlns="http://www.w3.org/2000/svg" width="15.995" height="14.905" viewBox="0 0 15.995 14.905">
  <g id="card" transform="translate(-6.006 -13)">
    <path id="路径_83240" data-name="路径 83240" d="M663.675,66.581a.855.855,0,0,0-.8-.623l-3.382.445c.712,2.225,2.759,7.777,3.56,10.269a.962.962,0,0,1-.623,1.246l-3.382,1.157,5.785-.8a.855.855,0,0,0,.623-.8l-1.78-10.892Z" transform="translate(-643.455 -51.999)" fill="#fff"/>
    <path id="路径_83241" data-name="路径 83241" d="M12.858,11.7,8.764.625C8.585.18,8.326.01,7.874.18L.666,2.672a.65.65,0,0,0-.356.89L4.4,14.546a.734.734,0,0,0,.89.445l1.6-.534,5.518-1.869c.445-.178.689-.332.445-.89ZM8.5,8.584a1.1,1.1,0,0,1-1.246-.267l-.089.089a1.3,1.3,0,0,0,.534.8l.178.178-.89.267V9.385A3.651,3.651,0,0,0,6.9,8.406H6.806a1.592,1.592,0,0,1-.79.979.856.856,0,0,1-.178.089,1.3,1.3,0,0,1-1.345-.89C3.958,7.071,5.56,5.024,5.827,4.757c.356.089,2.848.712,3.382,2.225a1.271,1.271,0,0,1-.534,1.513.713.713,0,0,1-.178.089Z" transform="translate(5.76 12.885)" fill="#fff"/>
  </g>
</svg>
