<svg xmlns="http://www.w3.org/2000/svg" width="22" height="22" viewBox="0 0 22 22">
    <path data-name="路径 915" d="M200.83 186.666h-9.92a4.254 4.254 0 0 0-4.254 4.254v9.92a2.746 2.746 0 0 1-2.836-3.088v-10.828a2.782 2.782 0 0 1 3.094-3.094h10.829a2.746 2.746 0 0 1 3.087 2.836z" transform="translate(-183.82 -183.83)" style="fill:#f65d11"/>
    <path data-name="路径 916" d="M351 347.91h10.829a2.782 2.782 0 0 1 3.097 3.09v10.829a2.782 2.782 0 0 1-3.094 3.094H351a2.782 2.782 0 0 1-3.094-3.094V351a2.782 2.782 0 0 1 3.094-3.09z" transform="translate(-342.926 -342.926)" style="fill:#f65d11"/>
</svg>
