<svg data-name="@icon-24-delete" xmlns="http://www.w3.org/2000/svg" width="24" height="24" viewBox="0 0 24 24">
    <path data-name="矩形 17560" style="fill:none" d="M0 0h24v24H0z"/>
    <path d="M142.753 66.074a2.525 2.525 0 0 1 1.089.205 1.959 1.959 0 0 1 .682.513 1.8 1.8 0 0 1 .352.667 2.519 2.519 0 0 1 .1.667 1.81 1.81 0 0 1-.011.226 1.091 1.091 0 0 0-.011.144v.123H143.5v10.775a1.858 1.858 0 0 1-.176.79 1.986 1.986 0 0 1-.506.667 2.555 2.555 0 0 1-.8.462 3.139 3.139 0 0 1-1.089.174h-9.814a3.473 3.473 0 0 1-1.078-.164 2.64 2.64 0 0 1-.869-.462 2.162 2.162 0 0 1-.572-.718 2.116 2.116 0 0 1-.209-.954v-10.57h-1.367a.154.154 0 0 1-.022-.1 4.874 4.874 0 0 1-.022-.636 1.615 1.615 0 0 1 .132-.6 1.905 1.905 0 0 1 .4-.605 2.1 2.1 0 0 1 .682-.462 2.436 2.436 0 0 1 .99-.185h1.958v-1.25a1.22 1.22 0 0 1 .4-.913 1.347 1.347 0 0 1 .968-.38h6.887a1.285 1.285 0 0 1 1.067.38 1.437 1.437 0 0 1 .3.913v1.273q.462.02.99.021h1.012zm-10.254 0h6.887v-1.293H132.5zm-.682 12.992q.7 0 .7-.841V68.7h-1.364v9.523a1.126 1.126 0 0 0 .143.636.588.588 0 0 0 .521.207zm4.159-.021a.571.571 0 0 0 .506-.195 1.144 1.144 0 0 0 .132-.626V68.7h-1.364v9.523q0 .822.726.823zm4.137-.045a.6.6 0 0 0 .528-.195 1.144 1.144 0 0 0 .132-.626V68.7h-1.386v9.482q0 .818.726.818z" transform="translate(-123.976 -60.488)" style="fill:#bebebe"/>
</svg>
