<svg xmlns="http://www.w3.org/2000/svg" width="16" height="16" viewBox="0 0 16 16">
  <path id="dice" d="M167.721,153.6H155.279a1.784,1.784,0,0,0-1.779,1.779v12.442a1.784,1.784,0,0,0,1.779,1.779h12.442a1.784,1.784,0,0,0,1.779-1.779V155.377a1.783,1.783,0,0,0-1.779-1.777ZM157.5,166.931a1.334,1.334,0,1,1,.944-.391,1.335,1.335,0,0,1-.944.391Zm0-4a1.334,1.334,0,1,1,.944-.391,1.335,1.335,0,0,1-.944.391Zm0-4a1.332,1.332,0,1,1,.945-.39,1.335,1.335,0,0,1-.945.39Zm8,8a1.334,1.334,0,1,1,.944-.391,1.335,1.335,0,0,1-.944.391Zm0-4a1.334,1.334,0,1,1,.944-.391,1.335,1.335,0,0,1-.944.391Zm0-4a1.332,1.332,0,1,1,.945-.39,1.335,1.335,0,0,1-.945.39Z" transform="translate(-153.5 -153.6)" fill="#fff"/>
</svg>
