<svg xmlns="http://www.w3.org/2000/svg" width="16" height="8.387" viewBox="0 0 16 8.387">
  <path id="隐藏" d="M59.4,272.27l1.449,2.1a.781.781,0,0,1-1.285.887l-1.654-2.4a11.191,11.191,0,0,1-2.546.467v2.859a.781.781,0,0,1-1.561,0v-2.859a11.191,11.191,0,0,1-2.546-.467l-1.654,2.4a.781.781,0,0,1-1.285-.887l1.449-2.1a8.354,8.354,0,0,1-3.027-2.442.781.781,0,0,1,1.249-.937,8.247,8.247,0,0,0,6.595,2.9,8.247,8.247,0,0,0,6.595-2.9.781.781,0,0,1,1.249.937A8.354,8.354,0,0,1,59.4,272.27Z" transform="translate(-46.579 -268.579)" fill="#816c4b"/>
</svg>
