<svg data-name="组件 219 – 2" xmlns="http://www.w3.org/2000/svg" width="24" height="24" viewBox="0 0 24 24">
    <path data-name="矩形 17592" style="fill:none" d="M0 0h24v24H0z"/>
    <path d="M34.09 46.88v2.336a1.242 1.242 0 0 0 .925 1.168l.487.1c.049 0 .146.049.195.049a.853.853 0 0 0 .827-.827v-3.313a.293.293 0 0 0-.049-.195.878.878 0 0 0-1.022-.633l-.487.1a1.373 1.373 0 0 0-.876 1.215zm15.62 3.65.487-.1a1.242 1.242 0 0 0 .925-1.168v-2.333a1.242 1.242 0 0 0-.925-1.168l-.487-.1c-.049 0-.146-.049-.195-.049a.853.853 0 0 0-.827.827v3.309a.293.293 0 0 0 .049.195.835.835 0 0 0 .974.587zm1.9-5.693a2.739 2.739 0 0 1 .973 2.044v2.336a2.659 2.659 0 0 1-2 2.579 3.658 3.658 0 0 1-3.6 3.066h-4.38a.73.73 0 1 1 0-1.46h4.38a2.166 2.166 0 0 0 2.044-1.46 2.315 2.315 0 0 1-1.752-1.7 2.182 2.182 0 0 1-.049-.535v-3.314a2.284 2.284 0 0 1 2.287-2.287 1.825 1.825 0 0 1 .535.049h.052c-.146-5.255-2.628-7.786-7.494-7.786S35.258 38.9 35.064 44.2h.049a2.3 2.3 0 0 1 2.774 1.655 2.182 2.182 0 0 1 .049.535v3.31a2.284 2.284 0 0 1-2.287 2.287 1.825 1.825 0 0 1-.535-.049l-.487-.1a2.7 2.7 0 0 1-2.044-2.579v-2.33a2.661 2.661 0 0 1 .973-2.044c.049-6.569 3.114-9.976 9.051-9.976s9.002 3.406 9.002 9.927z" transform="translate(-30.582 -32.947)" style="fill:#959595"/>
</svg>
