<svg data-name="组件 216 – 3" xmlns="http://www.w3.org/2000/svg" width="24" height="24" viewBox="0 0 24 24">
    <path data-name="矩形 17590" style="fill:none" d="M0 0h24v24H0z"/>
    <path data-name="排除 3" d="M14.991 19.828H5.006a2.726 2.726 0 0 1-2.724-2.722V9.842H.909a.907.907 0 0 1-.628-1.563L8.123.757a2.722 2.722 0 0 1 3.771 0l7.826 7.522a.908.908 0 0 1-.629 1.563h-1.376v7.263a2.726 2.726 0 0 1-2.724 2.723zM3.645 8.481v8.625a1.361 1.361 0 0 0 1.281 1.359h10.065a1.362 1.362 0 0 0 1.36-1.281V8.481h1.611l-7.01-6.74a1.362 1.362 0 0 0-1.822-.058l-.065.057-7.027 6.741z" transform="translate(1.999 2.086)" style="fill:#959595"/>
    <path data-name="路径 83190" d="M369.321 696.32h4.993a.6.6 0 0 1 .681.681.6.6 0 0 1-.681.681h-4.993a.6.6 0 0 1-.681-.681.6.6 0 0 1 .681-.681z" transform="translate(-359.82 -680.306)" style="fill:#959595"/>
</svg>
