<svg id="组件_212_4" data-name="组件 212 – 4" xmlns="http://www.w3.org/2000/svg" width="24" height="24" viewBox="0 0 24 24">
  <rect id="矩形_17599" data-name="矩形 17599" width="24" height="24" fill="none"/>
  <rect id="矩形_17604" data-name="矩形 17604" width="12" height="12" rx="6" transform="translate(10)" fill="#f9df7b"/>
  <g id="首页" transform="translate(-58.922 -65.856)">
    <path id="排除_3" data-name="排除 3" d="M14.991,19.828H5.006a2.726,2.726,0,0,1-2.724-2.722V9.842H.909A.907.907,0,0,1,.281,8.279L8.123.757a2.722,2.722,0,0,1,3.771,0L19.72,8.279a.908.908,0,0,1-.629,1.563H17.715v7.263A2.726,2.726,0,0,1,14.991,19.828ZM3.645,8.481v8.625a1.361,1.361,0,0,0,1.281,1.359l.08,0h9.985a1.362,1.362,0,0,0,1.36-1.281l0-.08V8.481h1.611L10.952,1.741A1.362,1.362,0,0,0,9.13,1.683l-.065.057L2.038,8.481Z" transform="translate(60.921 67.942)" fill="#2e2e2e"/>
  </g>
  <path id="路径_83193" data-name="路径 83193" d="M-7614.4,2748.6c-2,2.816-4.353,0-4.353,0" transform="translate(7628.577 -2733)" fill="none" stroke="#8c5f06" stroke-linecap="round" stroke-width="1.5"/>
</svg>
