<svg id="组件_457_2" data-name="组件 457 – 2" xmlns="http://www.w3.org/2000/svg" width="24" height="24" viewBox="0 0 24 24">
  <rect id="图像_799" data-name="图像 799" width="24" height="24" fill="none"/>
  <path id="公益" d="M17.729.918c-3.389-2.347-6.6.546-6.6.546l-.108.117,3.852,4.168a2.147,2.147,0,0,1,.246,2.576L17.4,10.76c.371-.417.675-.792.9-1.092.167-.221.329-.442.492-.667,1.313-1.809,2.322-5.727-1.067-8.074ZM13.056,9.5h-.071A2.372,2.372,0,0,1,11.276,8.7L8.663,5.787a.75.75,0,0,1-.171-.734.729.729,0,0,1,.546-.479.721.721,0,0,1,.7.238l2.284,2.543.45.554a.834.834,0,0,0,1.109.129.875.875,0,0,0,.3-1.088.884.884,0,0,1-.046-.088l-.021-.054-.033-.042-.042-.05-.029-.029-.834-.917-4-4.344C8.5,1.1,5.491-1.262,2.323.918-1.066,3.269-.053,7.171,1.247,8.992l.488.671a90.821,90.821,0,0,0,6.532,6.874,2.5,2.5,0,0,0,3.472.033L7.758,12.331a.75.75,0,0,1,.025-1.05.725.725,0,0,1,1.034.025l3.977,4.231c.417-.417.871-.867,1.321-1.321l-3.864-4.11a.75.75,0,0,1,.058-1.013.721.721,0,0,1,1,0l3.839,4.081c.417-.454.863-.9,1.251-1.321L14.007,9.305a2.347,2.347,0,0,1-.955.2Z" transform="translate(1.975 3.372)" fill="#6a7391"/>
</svg>
