<svg id="组件_220_4" data-name="组件 220 – 4" xmlns="http://www.w3.org/2000/svg" width="24" height="24" viewBox="0 0 24 24">
  <rect id="矩形_17593" data-name="矩形 17593" width="24" height="24" fill="none"/>
  <path id="wallet" d="M80.151,96.245a1.905,1.905,0,0,1,.033.356v.3a2.858,2.858,0,0,1,2.387,2.819v1.965A1.905,1.905,0,0,1,84,103.534v3.333a1.906,1.906,0,0,1-1.428,1.845v1.965a2.857,2.857,0,0,1-2.857,2.857H66.857A2.857,2.857,0,0,1,64,110.677V99.724a2.857,2.857,0,0,1,2.851-2.857v-.032l11.073-2.106a1.9,1.9,0,0,1,2.227,1.516Zm-.437,2.05H66.857a1.429,1.429,0,0,0-1.426,1.345l0,.084v10.952a1.429,1.429,0,0,0,1.345,1.426l.084,0H79.714a1.429,1.429,0,0,0,1.426-1.345l0-.084v-1.9H77.1a3.571,3.571,0,1,1,0-7.143h4.048v-1.9A1.429,1.429,0,0,0,79.8,98.3Zm2.381,4.762h-5a2.143,2.143,0,0,0-.1,4.283l.1,0h5a.476.476,0,0,0,.473-.42l0-.056v-3.333a.476.476,0,0,0-.42-.473Zm-5,1.429a.714.714,0,1,1-.714.714A.714.714,0,0,1,77.1,104.486Zm1.151-8.36-.055.008-3.86.733h4.425v-.288l-.008-.067a.476.476,0,0,0-.5-.386Z" transform="translate(-62 -92.115)" fill="#959595"/>
</svg>
