<svg xmlns="http://www.w3.org/2000/svg" width="100" height="36" viewBox="0 0 100 36">
  <g id="组_50804" data-name="组 50804" transform="translate(-1635 -1773)">
    <rect id="矩形_17932" data-name="矩形 17932" width="100" height="36" rx="18" transform="translate(1635 1773)" opacity="0.5"/>
    <g id="组_50802" data-name="组 50802" transform="translate(-232 -335)">
      <path id="修理维护" d="M10,20A10,10,0,1,1,20,10,10,10,0,0,1,10,20Zm5.654-6.159L12.968,11.15a.48.48,0,0,1-.106-.62A4.387,4.387,0,0,0,8.824,4.444a4.311,4.311,0,0,0-1.2.172.2.2,0,0,0-.095.351L9.547,6.988a1.664,1.664,0,0,1,0,2.351l-.2.2A1.657,1.657,0,0,1,7,9.535L4.955,7.481a.193.193,0,0,0-.322.089,4.379,4.379,0,0,0,6.027,5.246.37.37,0,0,1,.44.084l2.744,2.752a1.178,1.178,0,0,0,1.009.334,1.335,1.335,0,0,0,1.131-1.116,1.183,1.183,0,0,0-.33-1.031Z" transform="translate(1879 2116)" fill="#fff"/>
    </g>
    <text id="維護中" transform="translate(1675 1796)" fill="#fff" font-size="16" font-family="PingFangTC-Semibold, PingFang TC" font-weight="600"><tspan x="0" y="0">維護中</tspan></text>
  </g>
</svg>
