<svg id="组_49401" data-name="组 49401" xmlns="http://www.w3.org/2000/svg" width="40" height="16" viewBox="0 0 40 16">
  <rect id="矩形_14299" data-name="矩形 14299" width="40" height="16" rx="3" fill="#816c4b"/>
  <path id="f-vip3" d="M71.144,309.7l-3,4.819V309.71H65.13v.831h.754V319.7h2.257l6.039-9.989Zm4.543.042L69.849,319.7h2.824l5.765-9.958Zm6.467,0H80.118v0l-.053,0L74.227,319.7h2.824l0-.006h1.567v-.832h-1.09l1.669-2.911h2.953a3.108,3.108,0,0,0,0-6.21Zm-.089,4.462H80.2l1.564-2.727h.3a1.365,1.365,0,0,1,0,2.727Z" transform="translate(-60.131 -306.705)" fill="#fff"/>
  <text id="_1" data-name="1" transform="translate(29 13)" fill="#fff" font-size="12" font-family="MicrosoftYaHei-Bold, Microsoft YaHei" font-weight="700"><tspan x="0" y="0">1</tspan></text>
</svg>
