<svg xmlns="http://www.w3.org/2000/svg" width="16" height="12.8" viewBox="0 0 16 12.8">
  <path id="lucky7" d="M5.04,103.44c0-.76-.24-1-.84-1.04H.84q-.84,0-.84.96V114.4c0,.36.04.68.36.8H4.68c.36-.16.36-.52.36-.92V103.44Zm-3.76.04H4.12a1.626,1.626,0,0,1-1.32,1.04,1.672,1.672,0,0,1-1.84-1c.16,0,.24-.04.32-.04ZM1,114.2a1.693,1.693,0,0,1,3.08,0Zm3.04-6.28a6.284,6.284,0,0,0-.8,2.8c0,.44-.32.28-.52.28-.96.04-1-.04-.76-1.12a5.27,5.27,0,0,1,1.08-2.04c-.44.12-1-.48-1.32.44-.08.2-.48.08-.68.04-.24-.04-.16-.32-.16-.48-.04-1.12-.04-1.12.92-1.12H3.4c.72,0,1,.52.64,1.2Zm6.48-4.48c0-.76-.24-1-.84-1.04H6.28q-.84,0-.84.96v11c0,.36.04.68.36.8h4.32c.36-.16.36-.52.36-.92C10.52,110.68,10.52,107.04,10.52,103.44Zm-3.8.04H9.6a1.626,1.626,0,0,1-1.32,1.04,1.672,1.672,0,0,1-1.84-1,1.418,1.418,0,0,0,.28-.04ZM6.48,114.2a1.693,1.693,0,0,1,3.08,0Zm3.04-6.28a6.284,6.284,0,0,0-.8,2.8c0,.44-.32.28-.52.28-.96.04-1-.04-.76-1.12a5.27,5.27,0,0,1,1.08-2.04c-.44.12-1-.48-1.32.44-.08.2-.48.08-.68.04-.24-.08-.12-.32-.12-.52-.04-1.12-.04-1.12.92-1.12h1.6c.68.04.96.56.6,1.24ZM16,103.44c0-.76-.24-1.04-.84-1.04h-3.4q-.84,0-.84.96v11c0,.36.04.68.36.8H15.6c.36-.16.36-.52.36-.92C16,110.68,16,107.04,16,103.44Zm-3.8.04h2.84a1.626,1.626,0,0,1-1.32,1.04,1.672,1.672,0,0,1-1.84-1C12.04,103.52,12.12,103.48,12.2,103.48Zm-.24,10.72a1.693,1.693,0,0,1,3.08,0Zm3-6.28a6.284,6.284,0,0,0-.8,2.8c0,.44-.32.28-.52.28-.96.04-1-.04-.76-1.12a5.27,5.27,0,0,1,1.08-2.04c-.44.12-1-.48-1.32.44-.08.2-.48.08-.68.04-.24-.04-.12-.32-.16-.48-.04-1.12-.04-1.12.92-1.12h1.6c.76,0,1.04.52.64,1.2Z" transform="translate(0 -102.4)" fill="#fff"/>
</svg>
