<svg data-name="@ic-32-market" xmlns="http://www.w3.org/2000/svg" width="32" height="32" viewBox="0 0 32 32">
    <defs>
        <filter id="nfk3n2abma" x=".5" y="2.196" width="31" height="29.609" filterUnits="userSpaceOnUse">
            <feOffset dy="1"/>
            <feGaussianBlur stdDeviation="2.5" result="blur"/>
            <feFlood flood-color="#2840a5"/>
            <feComposite operator="in" in2="blur"/>
            <feComposite in="SourceGraphic"/>
        </filter>
    </defs>
    <circle data-name="椭圆 368" cx="16" cy="16" r="16" style="fill:#499ede"/>
    <g style="filter:url(#nfk3n2abma)">
        <path data-name="24gf-store2" d="M44.754 92.29a2.089 2.089 0 0 1-2.087-2.09.346.346 0 0 1 .033-.146l1.807-3.916a1.4 1.4 0 0 1 1.263-.808h1.02l-.9 6.622a2.049 2.049 0 0 1-.185.107 2.094 2.094 0 0 1-.949.227zm1.834-.227a2.089 2.089 0 0 0 2.071-.1q.066-.042.128-.089l.463-6.54h-1.758l-.917 6.722zm12.047-2.005-1.807-3.916a1.4 1.4 0 0 0-1.263-.808h-1.022l.9 6.622a2.05 2.05 0 0 0 .185.107 2.088 2.088 0 0 0 3.039-1.863.346.346 0 0 0-.032-.143zm-7.968 2.232a2.08 2.08 0 0 0 1.122-.327l.063-.042-.466-6.587h-1.439l-.466 6.587.063.042a2.08 2.08 0 0 0 1.123.327zm2.008-.327a2.089 2.089 0 0 0 2.071.1l.013-.007-.917-6.722h-1.758l.463 6.54q.062.046.128.089zm5.3 1.371v5.217a1.393 1.393 0 0 1-1.391 1.391h-1.048a.348.348 0 0 1-.348-.348v-3.826a1.391 1.391 0 0 0-2.783 0v3.826a.348.348 0 0 1-.348.348h-7.3a1.393 1.393 0 0 1-1.391-1.391v-5.218a.348.348 0 0 1 .557-.278 1.391 1.391 0 0 0 1.948-.279.348.348 0 0 1 .556 0 1.391 1.391 0 0 0 2.366-.228.348.348 0 0 1 .626 0 1.392 1.392 0 0 0 2.5 0 .348.348 0 0 1 .626 0 1.391 1.391 0 0 0 2.366.228.348.348 0 0 1 .556 0 1.391 1.391 0 0 0 1.948.279.348.348 0 0 1 .557.278zm-8.348 1.043h-3.482v2.783h3.478z" transform="translate(-34.67 -76.64)" style="fill:#fff"/>
    </g>
</svg>
