<svg xmlns="http://www.w3.org/2000/svg" width="16" height="16" viewBox="0 0 16 16">
    <path d="M104 96a8 8 0 1 0 8 8 8.009 8.009 0 0 0-8-8zm-4.962 7.315 1.508.688.658 2.573-.6 1.127-2.2-.027a6.717 6.717 0 0 1-1.058-2.9zm8.362 4.385-.6-1.127.658-2.577 1.5-.685 1.692 1.465a6.668 6.668 0 0 1-1.058 2.9zm1.246-5.623-1.677.754-2.35-1.985v-1.811l1.842-1.254a6.858 6.858 0 0 1 2.904 2.219zm-7.131-4.3 1.835 1.25v1.815l-2.35 1.989-1.654-.754-.719-2.062a6.661 6.661 0 0 1 2.885-2.23zm1.042 12.754-.077-.019-.788-2.119.565-1.131h3.492l.577 1.165-.762 2.073-.115.027a9.7 9.7 0 0 1-1.554.158 6.522 6.522 0 0 1-1.341-.147z" transform="translate(-96 -96)" style="fill:#fff"/>
</svg>
