<svg data-name="组件 193 – 2" xmlns="http://www.w3.org/2000/svg" width="24" height="24" viewBox="0 0 24 24">
    <path data-name="矩形 17599" style="fill:none" d="M0 0h24v24H0z"/>
    <path data-name="路径 83228" d="M176.364 205.091v.457h-4.708a2.277 2.277 0 0 0-1.915 1.146l-.74 1.4-.74-1.4a2.278 2.278 0 0 0-1.915-1.145h-4.708v-11.913h14.727zM176.5 192h-15a1.536 1.536 0 0 0-1.5 1.566v12.053a1.538 1.538 0 0 0 1.5 1.566h4.84a.674.674 0 0 1 .47.275l.973 1.84.074.116a1.4 1.4 0 0 0 2.278 0l1.047-1.956a.675.675 0 0 1 .47-.275h4.848a1.536 1.536 0 0 0 1.5-1.566v-12.053a1.536 1.536 0 0 0-1.5-1.566z" style="fill:#e3e3e3" transform="translate(-157 -189)"/>
    <path data-name="路径 83229" d="M289.227 448a1.227 1.227 0 1 0 1.227 1.227 1.22 1.22 0 0 0-1.227-1.227m9 0a1.238 1.238 0 1 0 .818.318 1.227 1.227 0 0 0-.818-.318m-4.5 0a1.238 1.238 0 1 0 .818.318 1.22 1.22 0 0 0-.818-.318" transform="translate(-281.727 -438.455)" style="fill:#e3e3e3"/>
</svg>
