<svg xmlns="http://www.w3.org/2000/svg" xmlns:xlink="http://www.w3.org/1999/xlink" width="178.998" height="200" viewBox="0 0 178.998 200">
  <defs>
    <linearGradient id="linear-gradient" x1="0.5" y1="1" x2="0.636" y2="0.107" gradientUnits="objectBoundingBox">
      <stop offset="0" stop-color="#fff" stop-opacity="0.502"/>
      <stop offset="1" stop-color="#fff"/>
    </linearGradient>
    <clipPath id="clip-path">
      <path id="路径_83178" data-name="路径 83178" d="M34.927,144.874C20.848,135.825,9.372,123.153,3.479,108.3c-8.876-22.366-.312-44.1,20.484-55.832,11.58-6.536,24.668-10.892,34.524-19.733C65.2,26.711,70.01,18.945,76.091,12.3S90.306-.107,99.415,0c8,.1,15.139,4.653,21.765,9.046L149.4,27.755c5.424,3.6,10.989,7.329,14.607,12.676,5.5,8.125,5.607,18.6,4.537,28.293s-3.123,19.511-1.273,29.088c1.7,8.785,6.551,16.645,9.5,25.107s3.657,18.677-2.167,25.562c-5.24,6.195-14.3,7.892-22.494,7.4s-16.245-2.755-24.459-2.765c-11.291-.013-22.108,4.2-33.275,5.84-19.989,2.929-41.769-2.718-59.446-14.078" transform="translate(102.001 110.001)" fill="#fff" opacity="0.5"/>
    </clipPath>
    <linearGradient id="linear-gradient-2" x1="0.5" y1="0.063" x2="0.5" y2="0.832" gradientUnits="objectBoundingBox">
      <stop offset="0" stop-color="#e3e3e3"/>
      <stop offset="1" stop-color="#fff" stop-opacity="0"/>
    </linearGradient>
    <linearGradient id="linear-gradient-3" x1="0.769" y1="0.072" x2="0.5" y2="0.597" gradientUnits="objectBoundingBox">
      <stop offset="0" stop-color="#e3e3e3"/>
      <stop offset="1" stop-color="#fcfcfc"/>
    </linearGradient>
    <linearGradient id="linear-gradient-4" x1="0.237" y1="0.014" x2="0.413" y2="0.796" gradientUnits="objectBoundingBox">
      <stop offset="0" stop-color="#e3e3e3"/>
      <stop offset="1" stop-color="#e3e3e3" stop-opacity="0"/>
    </linearGradient>
    <linearGradient id="linear-gradient-5" x1="0.538" y1="0.947" x2="0.925" y2="0.108" gradientUnits="objectBoundingBox">
      <stop offset="0" stop-color="#bababa"/>
      <stop offset="1" stop-color="#e3e3e3"/>
    </linearGradient>
    <linearGradient id="linear-gradient-6" x1="0.336" y1="0.208" x2="0.704" y2="0.824" gradientUnits="objectBoundingBox">
      <stop offset="0" stop-color="#d3d3d3"/>
      <stop offset="1" stop-color="#e3e3e3" stop-opacity="0.98"/>
    </linearGradient>
    <linearGradient id="linear-gradient-7" x1="0.976" y1="0.264" x2="0.583" y2="0.555" gradientUnits="objectBoundingBox">
      <stop offset="0" stop-color="#e8e8e8"/>
      <stop offset="1" stop-color="#f5f5f5"/>
    </linearGradient>
    <linearGradient id="linear-gradient-8" x1="0.5" y1="0" x2="0.5" y2="1" xlink:href="#linear-gradient-5"/>
    <filter id="缩放_看_探索_查看_搜索_放大镜_优化_线性_扁平_填充_单色_简约_圆润" x="68.904" y="85.138" width="66.889" height="65.782" filterUnits="userSpaceOnUse">
      <feOffset dy="3" input="SourceAlpha"/>
      <feGaussianBlur stdDeviation="3" result="blur"/>
      <feFlood flood-opacity="0.161"/>
      <feComposite operator="in" in2="blur"/>
      <feComposite in="SourceGraphic"/>
    </filter>
    <linearGradient id="linear-gradient-9" x1="0.158" y1="1.175" x2="1" y2="-0.159" gradientUnits="objectBoundingBox">
      <stop offset="0" stop-color="#fff" stop-opacity="0.102"/>
      <stop offset="1" stop-color="#bebebe"/>
    </linearGradient>
    <linearGradient id="linear-gradient-10" x1="1" y1="1" x2="-0.301" y2="0.175" xlink:href="#linear-gradient-9"/>
  </defs>
  <g id="组_50039" data-name="组 50039" transform="translate(14145.999 -111)">
    <text id="目前暫無資料" transform="translate(-14102 307)" fill="#959595" font-size="15" font-family="MicrosoftYaHei-Bold, Microsoft YaHei" font-weight="700"><tspan x="0" y="0">目前暫無資料</tspan></text>
    <g id="组_50036" data-name="组 50036" transform="translate(-14256 1)">
      <path id="路径_83177" data-name="路径 83177" d="M34.927,144.874C20.848,135.825,9.372,123.153,3.479,108.3c-8.876-22.366-.312-44.1,20.484-55.832,11.58-6.536,24.668-10.892,34.524-19.733C65.2,26.711,70.01,18.945,76.091,12.3S90.306-.107,99.415,0c8,.1,15.139,4.653,21.765,9.046L149.4,27.755c5.424,3.6,10.989,7.329,14.607,12.676,5.5,8.125,5.607,18.6,4.537,28.293s-3.123,19.511-1.273,29.088c1.7,8.785,6.551,16.645,9.5,25.107s3.657,18.677-2.167,25.562c-5.24,6.195-14.3,7.892-22.494,7.4s-16.245-2.755-24.459-2.765c-11.291-.013-22.108,4.2-33.275,5.84-19.989,2.929-41.769-2.718-59.446-14.078" transform="translate(110.001 110.001)" fill="url(#linear-gradient)"/>
      <g id="蒙版组_17" data-name="蒙版组 17" transform="translate(8)" clip-path="url(#clip-path)">
        <path id="路径_83176" data-name="路径 83176" d="M11417.863,610.242s36.91-30.341,63.535-21.054,35.831-10.843,56.357-9.777,23.717,2.393,66.325,30.831h-186.218Z" transform="translate(-11311.116 -334.291)" fill="url(#linear-gradient-2)"/>
      </g>
      <g id="组_49314" data-name="组 49314" transform="translate(246.296 198.465)">
        <circle id="椭圆_380" data-name="椭圆 380" cx="20.282" cy="20.282" r="20.282" fill="url(#linear-gradient-3)"/>
        <g id="组_8850" data-name="组 8850" transform="translate(13.944 13.944)">
          <g id="组_8837" data-name="组 8837" transform="translate(0 0)">
            <g id="组_8835" data-name="组 8835" transform="translate(0 4.448)">
              <path id="路径_78635" data-name="路径 78635" d="M603.925,360.211l-.282,1.746-12.357-1.78.282-1.746Z" transform="translate(-591.286 -358.431)" fill="#e0e0e0"/>
            </g>
            <g id="组_8836" data-name="组 8836" transform="translate(4.449)">
              <path id="路径_78636" data-name="路径 78636" d="M610.121,341.569l1.773.255-1.966,12.167-1.774-.255Z" transform="translate(-608.154 -341.569)" fill="#e0e0e0"/>
            </g>
          </g>
        </g>
      </g>
      <g id="组_49316" data-name="组 49316" transform="translate(184.971 143.678)">
        <rect id="矩形_4831" data-name="矩形 4831" width="51.04" height="45.29" rx="2" transform="translate(11.722) rotate(15)" fill="url(#linear-gradient-4)"/>
        <rect id="矩形_17586" data-name="矩形 17586" width="30.423" height="2.535" rx="1" transform="matrix(0.961, 0.276, -0.276, 0.961, 14.672, 8.048)" fill="rgba(255,255,255,0.5)"/>
        <rect id="矩形_17587" data-name="矩形 17587" width="34.225" height="2.535" rx="1" transform="matrix(0.961, 0.276, -0.276, 0.961, 18.726, 14.449)" fill="rgba(255,255,255,0.5)"/>
      </g>
      <g id="组_9053" data-name="组 9053" transform="translate(180.607 181.596)">
        <g id="组_9049" data-name="组 9049" transform="translate(0 0)">
          <path id="路径_78732" data-name="路径 78732" d="M269.517,225.511l-9.328,47.958-1.221,6.278,62.272-.307c2.794-.014,5.268-2.5,6.171-6.182l11.044-45.28c.683-2.8-.815-5.707-2.936-5.707l-63.027.066C271.1,222.338,269.881,223.636,269.517,225.511Z" transform="translate(-258.968 -222.27)" fill="url(#linear-gradient-5)"/>
        </g>
      </g>
      <g id="组_49318" data-name="组 49318" transform="translate(-21 2)">
        <circle id="椭圆_381" data-name="椭圆 381" cx="9.507" cy="9.507" r="9.507" transform="translate(147.423 118.606)" fill="url(#linear-gradient-6)"/>
        <g id="组_49315" data-name="组 49315" transform="translate(152.493 123.676)">
          <rect id="矩形_17588" data-name="矩形 17588" width="1.268" height="8.873" transform="translate(3.803)" fill="#fff"/>
          <rect id="矩形_17589" data-name="矩形 17589" width="1.268" height="8.873" transform="translate(8.873 3.803) rotate(90)" fill="#fff"/>
        </g>
      </g>
      <rect id="矩形_4829" data-name="矩形 4829" width="35.61" height="52.434" rx="2" transform="translate(156.783 160.52) rotate(-7)" fill="url(#linear-gradient-7)"/>
      <g id="组_9051" data-name="组 9051" transform="translate(157.8 172.618)">
        <path id="路径_78734" data-name="路径 78734" d="M251.657,245.16l-6.593-53.131a4.182,4.182,0,0,0-4.051-3.794l-14.458.048a3.94,3.94,0,0,0-2.854,1.267l-6.867,7.294-40.21.21a4.278,4.278,0,0,0-4.019,4.95l6.121,49.106a4.182,4.182,0,0,0,4.046,3.792l70.076-.138c7.805.162,8.55-2.143,8.55-2.143C252.455,254.6,251.658,245.166,251.657,245.16Z" transform="translate(-172.551 -188.235)" fill="url(#linear-gradient-8)"/>
      </g>
      <g transform="matrix(1, 0, 0, 1, 110, 110)" filter="url(#缩放_看_探索_查看_搜索_放大镜_优化_线性_扁平_填充_单色_简约_圆润)">
        <path id="缩放_看_探索_查看_搜索_放大镜_优化_线性_扁平_填充_单色_简约_圆润-2" data-name="缩放,看,探索,查看,搜索,放大镜,优化,线性,扁平,填充,单色,简约,圆润" d="M126.242,117.672l-13.877-12.766a3.87,3.87,0,0,0-5.235-.22l-2.382-2.382a14.739,14.739,0,1,0-2.341,2.341l2.382,2.382a3.87,3.87,0,0,0,.22,5.235l13.872,12.766a3.871,3.871,0,0,0,5.474,0l1.883-1.883a3.878,3.878,0,0,0,.005-5.475ZM85.144,101.2a11.419,11.419,0,1,1,8.077,3.347A11.419,11.419,0,0,1,85.144,101.2Z" transform="translate(-0.58 12.76)" fill="#fff"/>
      </g>
      <circle id="椭圆_382" data-name="椭圆 382" cx="6.868" cy="6.868" r="6.868" transform="translate(136.569 199.311)" fill="url(#linear-gradient-9)"/>
      <circle id="椭圆_383" data-name="椭圆 383" cx="2.64" cy="2.64" r="2.64" transform="translate(129.797 216.078)" fill="url(#linear-gradient-10)"/>
    </g>
  </g>
</svg>
