<svg xmlns="http://www.w3.org/2000/svg" xmlns:xlink="http://www.w3.org/1999/xlink" width="167.5" height="113.001" viewBox="0 0 167.5 113.001">
  <defs>
    <linearGradient id="linear-gradient" x1="1" y1="1" x2="0.004" y2="1" gradientUnits="objectBoundingBox">
      <stop offset="0" stop-color="#8c5f06"/>
      <stop offset="0.32" stop-color="#fff3a6"/>
      <stop offset="1" stop-color="#8c5f06"/>
    </linearGradient>
    <linearGradient id="linear-gradient-2" x1="0.5" x2="0.5" y2="1" gradientUnits="objectBoundingBox">
      <stop offset="0" stop-color="#fff"/>
      <stop offset="1" stop-color="#fff8e6"/>
    </linearGradient>
  </defs>
  <g id="组_49787" data-name="组 49787" transform="translate(-15 -330)">
    <g id="组_49556" data-name="组 49556" transform="translate(15 343.001)">
      <rect id="矩形_15155" data-name="矩形 15155" width="165.5" height="99" rx="8" transform="translate(1 1)" fill="url(#linear-gradient)"/>
      <rect id="矩形_17530" data-name="矩形 17530" width="167.5" height="97" rx="8" fill="url(#linear-gradient-2)"/>
    </g>
    <g id="组_49557" data-name="组 49557" transform="translate(79 330)">
      <path id="路径_83157" data-name="路径 83157" d="M182.735,135.968a20,20,0,1,1-20-20A20,20,0,0,1,182.735,135.968Z" transform="translate(-142.735 -115.968)" fill="#ffd500"/>
      <path id="路径_83158" data-name="路径 83158" d="M215.1,173.39a14.945,14.945,0,1,1-14.94-14.949A14.951,14.951,0,0,1,215.1,173.39Z" transform="translate(-180.157 -153.39)" fill="#feac00"/>
      <path id="路径_83159" data-name="路径 83159" d="M203.153,166.52a16.071,16.071,0,0,1,30.015,8,16.312,16.312,0,0,1-.522,4.072,16.228,16.228,0,0,0-29.493-12.067Z" transform="translate(-198.218 -153.39)" fill="#f07700"/>
      <path id="路径_83160" data-name="路径 83160" d="M215.056,271.6a16.066,16.066,0,0,1-30.005-8,16.312,16.312,0,0,1,.522-4.072,16.22,16.22,0,0,0,15.907,19.41A16.192,16.192,0,0,0,215.056,271.6Z" transform="translate(-180.019 -244.707)" fill="#fff393"/>
      <path id="路径_83161" data-name="路径 83161" d="M204.038,198.3a14.321,14.321,0,0,1-5.116-3.448l21.05-19.494a14.259,14.259,0,0,1,3.038,5.367Zm7.026.895a14.342,14.342,0,0,0,12.3-11.387Zm-2.74-28.524L194.57,183.4a14.443,14.443,0,0,0,.252,4.734l18.2-16.857A14.341,14.341,0,0,0,208.324,170.675Zm-11.676,21.041c.2.382.429.764.671,1.128L218.09,173.61c-.345-.27-.708-.522-1.072-.755Z" transform="translate(-188.327 -165.228)" fill="#ffd500" opacity="0.34" style="mix-blend-mode: normal;isolation: isolate"/>
      <path id="路径_83162" data-name="路径 83162" d="M270.682,198.034v1.249a8.489,8.489,0,0,1,2.367.513,4.688,4.688,0,0,1,1.724,1.155,4.813,4.813,0,0,1,.895,1.221,2.544,2.544,0,0,1,.317,1.146,1.325,1.325,0,0,1-.475,1.006,1.63,1.63,0,0,1-1.146.419,1.572,1.572,0,0,1-1.64-1.23,2.768,2.768,0,0,0-2.05-1.929v4.827c1.072.261,1.92.5,2.553.718a5.3,5.3,0,0,1,1.7.941,4.328,4.328,0,0,1,1.659,3.476,4.785,4.785,0,0,1-.689,2.479,5.107,5.107,0,0,1-2.031,1.882,7.874,7.874,0,0,1-3.187.867v2.889a2.4,2.4,0,0,1-.149,1,.658.658,0,0,1-.652.317.761.761,0,0,1-.652-.252,1.379,1.379,0,0,1-.186-.792V216.8a9.271,9.271,0,0,1-2.646-.634,6.24,6.24,0,0,1-1.882-1.211,5.1,5.1,0,0,1-1.118-1.509,3.635,3.635,0,0,1-.363-1.538,1.333,1.333,0,0,1,.485-1.006,1.723,1.723,0,0,1,1.211-.447,1.857,1.857,0,0,1,.978.242,1.257,1.257,0,0,1,.559.68,14.851,14.851,0,0,0,.606,1.454,2.763,2.763,0,0,0,.783.923,3.492,3.492,0,0,0,1.388.634v-5.4a17.27,17.27,0,0,1-2.9-.96,4.862,4.862,0,0,1-1.892-1.5,4.08,4.08,0,0,1-.727-2.507,4.207,4.207,0,0,1,1.416-3.271,6.732,6.732,0,0,1,4.091-1.482v-1.221q0-.979.811-.978C270.411,197.083,270.682,197.4,270.682,198.034Zm-1.64,7.958v-4.445a4.793,4.793,0,0,0-1.7.764,1.716,1.716,0,0,0-.606,1.435,1.689,1.689,0,0,0,.568,1.388A5.528,5.528,0,0,0,269.042,205.992Zm1.64,3.448v5.079a3.7,3.7,0,0,0,2.013-.941,2.26,2.26,0,0,0,.708-1.649,1.881,1.881,0,0,0-.69-1.556A5.59,5.59,0,0,0,270.682,209.439Z" transform="translate(-249.84 -188.612)" fill="#ffe400"/>
    </g>
    <text id="快速儲值" transform="translate(99 392)" fill="#816c4b" font-size="16" font-family="PingFangTC-Semibold, PingFang TC" font-weight="600"><tspan x="-32" y="0">快速儲值</tspan></text>
    <text id="極速提存款_轉獨家_網路優化技術" data-name="極速提存款，轉獨家
網路優化技術" transform="translate(99 410)" fill="#c2a67b" font-size="12" font-family="PingFangTC-Regular, PingFang TC"><tspan x="-54" y="0">極速提存款，轉獨家</tspan><tspan y="0" font-family="HelveticaNeue, Helvetica Neue"></tspan><tspan x="-36" y="14">網路優化技術</tspan></text>
  </g>
</svg>
