<svg data-name="组件 218 – 4" xmlns="http://www.w3.org/2000/svg" width="24" height="24" viewBox="0 0 24 24">
    <path data-name="矩形 17591" style="fill:none" d="M0 0h24v24H0z"/>
    <path data-name="路径 83181" d="M81.685 386.485H67.456a1.63 1.63 0 0 1-1.663-1.59v-10.979h1.3v10.978a.362.362 0 0 0 .365.349h14.227a.362.362 0 0 0 .365-.349v-11.108h1.3v11.109a1.63 1.63 0 0 1-1.665 1.59z" transform="translate(-62.548 -364.399)" style="fill:#959595"/>
    <path data-name="路径 83182" d="M22.358 172.063h-20v-3.621a1.371 1.371 0 0 1 1.382-1.357h17.237a1.371 1.371 0 0 1 1.382 1.357zm-18.8-1.179h17.6v-2.442a.18.18 0 0 0-.181-.178H3.74a.18.18 0 0 0-.181.178z" transform="translate(-.358 -161.736)" style="fill:#959595"/>
    <path data-name="路径 83184" d="m137.691 4.384-.614-.151-.049-.438a3.252 3.252 0 0 0-2.091-2.164 4.109 4.109 0 0 0-2.21-.325 1.327 1.327 0 0 0-1.111.7 1.442 1.442 0 0 0 .339 1.387l-1.018.758a2.645 2.645 0 0 1-.49-2.641 2.22 2.22 0 0 1 .838-.984 3.173 3.173 0 0 1 1.228-.466 5.336 5.336 0 0 1 2.923.408 4.4 4.4 0 0 1 2.855 3.187l-.431.048z" transform="translate(-125.764 2.086)" style="fill:#959595"/>
    <path data-name="路径 83185" d="m491.066 5.568-1.018-.757a1.406 1.406 0 0 0 .328-1.313 1.327 1.327 0 0 0-1.091-.728 4.114 4.114 0 0 0-2.219.264 4.265 4.265 0 0 0-1.581 1.044 1.976 1.976 0 0 0-.579 1.15l-1.269-.077a4.288 4.288 0 0 1 2.963-3.295 5.338 5.338 0 0 1 2.934-.327 3.171 3.171 0 0 1 1.215.5 2.223 2.223 0 0 1 .81 1.006 2.615 2.615 0 0 1-.493 2.533z" transform="translate(-472.193 .667)" style="fill:#959595"/>
    <path data-name="直线 530" transform="translate(12 13.5)" style="stroke:#959595;stroke-width:1.5px;fill:none" d="M0 0v6"/>
</svg>
