<svg id="组件_213_3" data-name="组件 213 – 3" xmlns="http://www.w3.org/2000/svg" width="24" height="24" viewBox="0 0 24 24">
  <rect id="矩形_17597" data-name="矩形 17597" width="24" height="24" fill="none"/>
  <rect id="矩形_17603" data-name="矩形 17603" width="12" height="12" rx="6" transform="translate(1 11)" fill="#f9df7b"/>
  <g id="礼物" transform="translate(-0.358 2.086)">
    <path id="路径_83181" data-name="路径 83181" d="M81.685,386.485H67.456a1.63,1.63,0,0,1-1.663-1.59V373.916h1.3v10.978a.362.362,0,0,0,.365.349H81.685a.362.362,0,0,0,.365-.349V373.786h1.3v11.109A1.63,1.63,0,0,1,81.685,386.485Z" transform="translate(-62.19 -366.485)" fill="#2e2e2e"/>
    <path id="路径_83182" data-name="路径 83182" d="M22.358,172.063h-20v-3.621a1.371,1.371,0,0,1,1.382-1.357H20.977a1.371,1.371,0,0,1,1.382,1.357Zm-18.8-1.179h17.6v-2.442a.18.18,0,0,0-.181-.178H3.74a.18.18,0,0,0-.181.178Z" transform="translate(0 -163.822)" fill="#2e2e2e"/>
    <path id="路径_83184" data-name="路径 83184" d="M137.691,4.384l-.614-.151-.049-.438a3.252,3.252,0,0,0-2.091-2.164,4.109,4.109,0,0,0-2.21-.325,1.327,1.327,0,0,0-1.111.7,1.442,1.442,0,0,0,.339,1.387l-1.018.758a2.645,2.645,0,0,1-.49-2.641,2.22,2.22,0,0,1,.838-.984A3.173,3.173,0,0,1,132.513.06a5.336,5.336,0,0,1,2.923.408,4.4,4.4,0,0,1,2.855,3.187l-.431.048Z" transform="translate(-125.406 0)" fill="#2e2e2e"/>
    <path id="路径_83185" data-name="路径 83185" d="M491.066,5.568l-1.018-.757a1.406,1.406,0,0,0,.328-1.313,1.327,1.327,0,0,0-1.091-.728,4.114,4.114,0,0,0-2.219.264,4.265,4.265,0,0,0-1.581,1.044,1.976,1.976,0,0,0-.579,1.15l-1.269-.077A4.288,4.288,0,0,1,486.6,1.856a5.338,5.338,0,0,1,2.934-.327,3.171,3.171,0,0,1,1.215.5,2.223,2.223,0,0,1,.81,1.006A2.615,2.615,0,0,1,491.066,5.568Z" transform="translate(-471.835 -1.419)" fill="#2e2e2e"/>
    <line id="直线_529" data-name="直线 529" y2="6" transform="translate(12.358 11.414)" fill="none" stroke="#8c5f06" stroke-linecap="round" stroke-width="1.5"/>
  </g>
</svg>
