<svg xmlns="http://www.w3.org/2000/svg" width="16" height="16" viewBox="0 0 16 16">
    <path d="M8 16a8 8 0 1 1 8-8 8 8 0 0 1-8 8zm-.987-5v2h2.041v-2zM4.86 6.509h1.911a2.639 2.639 0 0 1 .078-.656 1.58 1.58 0 0 1 .24-.533 1.221 1.221 0 0 1 .417-.364 1.256 1.256 0 0 1 .6-.137 1.112 1.112 0 0 1 .813.286 1.186 1.186 0 0 1 .292.884 1.06 1.06 0 0 1-.123.585A1.737 1.737 0 0 1 8.734 7q-.221.2-.48.39a3.268 3.268 0 0 0-.495.46 2.532 2.532 0 0 0-.624 1.58v.585H8.89v-.49a1.331 1.331 0 0 1 .254-.65 2.579 2.579 0 0 1 .461-.461q.261-.2.553-.4a2.532 2.532 0 0 0 .936-1.176 2.791 2.791 0 0 0 .162-1.028 2.333 2.333 0 0 0-.7-1.625 2.989 2.989 0 0 0-.994-.63A4.055 4.055 0 0 0 8.02 3.3a3.349 3.349 0 0 0-1.294.24 2.87 2.87 0 0 0-.988.67A3.053 3.053 0 0 0 5.1 5.222a3.7 3.7 0 0 0-.24 1.287z" style="fill:#959595"/>
</svg>
