<svg id="_icon24-refresh" data-name="@icon24-refresh" xmlns="http://www.w3.org/2000/svg" width="24" height="24" viewBox="0 0 24 24">
  <rect id="矩形_17560" data-name="矩形 17560" width="24" height="24" fill="none"/>
  <path id="刷新" d="M107.079,112.812a6.991,6.991,0,0,0,4.085,2.4,7.062,7.062,0,0,0,5.285-1.091l1.121,1.352.848-4.231-4.37-.019,1.173,1.415a5.11,5.11,0,0,1-3.691.7,5.056,5.056,0,0,1-2.956-1.738,4.946,4.946,0,0,1-.9-4.723l-2,0c-.019.082-.037.163-.053.246a6.825,6.825,0,0,0,1.462,5.69m2.648-8.574a5.111,5.111,0,0,1,3.722-.719,5.058,5.058,0,0,1,2.956,1.737,4.94,4.94,0,0,1,.871,4.81l2.011.009c.028-.112.054-.224.076-.338a6.833,6.833,0,0,0-1.463-5.691,7,7,0,0,0-4.085-2.4h-.005a7.061,7.061,0,0,0-5.316,1.115l-1.072-1.285-.833,4.233,4.369,0-1.231-1.475M109.727,104.238Z" transform="translate(-100.49 -96.475)" fill="#959595"/>
</svg>
