<svg xmlns="http://www.w3.org/2000/svg" xmlns:xlink="http://www.w3.org/1999/xlink" width="152.5" height="60" viewBox="0 0 152.5 60">
  <defs>
    <linearGradient id="linear-gradient" x1="0.5" y1="0.433" x2="0.5" y2="1" gradientUnits="objectBoundingBox">
      <stop offset="0" stop-color="#f9df7b"/>
      <stop offset="1" stop-color="#fffbe1"/>
    </linearGradient>
    <linearGradient id="linear-gradient-2" x1="0.633" y1="0.5" x2="0.633" y2="1.074" xlink:href="#linear-gradient"/>
    <clipPath id="clip-path">
      <rect id="矩形_99" data-name="矩形 99" width="152.5" height="60" rx="6" fill="url(#linear-gradient)"/>
    </clipPath>
    <linearGradient id="linear-gradient-3" x2="1" y2="1" gradientUnits="objectBoundingBox">
      <stop offset="0" stop-color="#fff"/>
      <stop offset="1" stop-color="#fff" stop-opacity="0"/>
    </linearGradient>
    <filter id="_24gf-store2" x="6" y="8" width="48" height="45.913" filterUnits="userSpaceOnUse">
      <feOffset dy="1" input="SourceAlpha"/>
      <feGaussianBlur stdDeviation="4" result="blur"/>
      <feFlood flood-color="#a57f28" flood-opacity="0.8"/>
      <feComposite operator="in" in2="blur"/>
      <feComposite in="SourceGraphic"/>
    </filter>
  </defs>
  <g id="组_49877" data-name="组 49877" transform="translate(-30 -94)">
    <g id="tab-bg" transform="translate(30 94)">
      <g id="矩形_58" data-name="矩形 58" stroke="#f9df7b" stroke-width="1" fill="url(#linear-gradient-2)">
        <rect width="152.5" height="60" rx="6" stroke="none"/>
        <rect x="0.5" y="0.5" width="151.5" height="59" rx="5.5" fill="none"/>
      </g>
      <g id="蒙版组_5" data-name="蒙版组 5" clip-path="url(#clip-path)">
        <path id="路径_83161" data-name="路径 83161" d="M48.391,48.391,170.707-2.038,120.278,120.278-2.038,170.707Z" transform="translate(76.25 -132.524) rotate(45)" fill="url(#linear-gradient-3)"/>
      </g>
    </g>
    <text id="超商儲值" transform="translate(115 129)" fill="#816c4b" font-size="15" font-family="PingFangTC-Semibold, PingFang TC" font-weight="600"><tspan x="-30" y="0">超商儲值</tspan></text>
    <g id="_icon40-market-s" data-name="@icon40-market-s" transform="translate(40 104)">
      <rect id="矩形_17561" data-name="矩形 17561" width="40" height="40" fill="none"/>
      <g transform="matrix(1, 0, 0, 1, -10, -10)" filter="url(#_24gf-store2)">
        <path id="_24gf-store2-2" data-name="24gf-store2" d="M45.8,95.768a3.134,3.134,0,0,1-3.13-3.13.519.519,0,0,1,.049-.219l2.71-5.873a2.093,2.093,0,0,1,1.895-1.212h1.531L47.5,95.266a3.072,3.072,0,0,1-.277.161,3.141,3.141,0,0,1-1.423.341Zm2.752-.341a3.134,3.134,0,0,0,3.106-.15q.1-.063.192-.134l.694-9.81H49.9L48.53,95.417Zm18.07-3.008-2.711-5.873a2.093,2.093,0,0,0-1.895-1.212H60.482l1.354,9.933a3.075,3.075,0,0,0,.277.161,3.132,3.132,0,0,0,4.553-2.789A.519.519,0,0,0,66.619,92.419ZM54.667,95.768a3.121,3.121,0,0,0,1.684-.491c.033-.021.064-.042.1-.063l-.7-9.88H53.587l-.7,9.88.1.063A3.121,3.121,0,0,0,54.667,95.768Zm3.012-.491a3.134,3.134,0,0,0,3.106.15l.019-.01L59.429,85.333H56.792l.694,9.81Q57.58,95.214,57.679,95.277Zm7.944,2.056v7.826a2.089,2.089,0,0,1-2.087,2.087H61.971a.522.522,0,0,1-.522-.522v-5.739a2.087,2.087,0,0,0-4.174,0v5.739a.522.522,0,0,1-.522.522H45.8a2.089,2.089,0,0,1-2.087-2.087V97.333a.522.522,0,0,1,.835-.417,2.087,2.087,0,0,0,2.922-.418.522.522,0,0,1,.834,0,2.087,2.087,0,0,0,3.548-.342.522.522,0,0,1,.938,0,2.088,2.088,0,0,0,3.757,0,.522.522,0,0,1,.938,0,2.087,2.087,0,0,0,3.548.342.522.522,0,0,1,.834,0,2.087,2.087,0,0,0,2.922.418.522.522,0,0,1,.835.417ZM53.1,98.9H47.884v4.174H53.1Z" transform="translate(-24.67 -66.33)" fill="#fff"/>
      </g>
    </g>
  </g>
</svg>
