<svg xmlns="http://www.w3.org/2000/svg" xmlns:xlink="http://www.w3.org/1999/xlink" width="54.923" height="55.11" viewBox="0 0 54.923 55.11">
  <defs>
    <linearGradient id="linear-gradient" x1="0.827" y1="0.619" x2="1" y2="0.957" gradientUnits="objectBoundingBox">
      <stop offset="0" stop-color="#f9df7b"/>
      <stop offset="1" stop-color="#fffbe1"/>
    </linearGradient>
    <linearGradient id="linear-gradient-2" x1="0.917" y1="0.402" x2="0.197" y2="0.614" gradientUnits="objectBoundingBox">
      <stop offset="0" stop-color="#8c5f06"/>
      <stop offset="0.562" stop-color="#fff3a6"/>
      <stop offset="1" stop-color="#8c5f06"/>
    </linearGradient>
    <filter id="路径_64013" x="0" y="0" width="54.923" height="55.11" filterUnits="userSpaceOnUse">
      <feOffset dy="5" input="SourceAlpha"/>
      <feGaussianBlur stdDeviation="3" result="blur"/>
      <feFlood flood-color="#795810" flood-opacity="0.235"/>
      <feComposite operator="in" in2="blur"/>
      <feComposite in="SourceGraphic"/>
    </filter>
    <clipPath id="clip-path">
      <ellipse id="椭圆_384" data-name="椭圆 384" cx="18.462" cy="18.696" rx="18.462" ry="18.696" fill="url(#linear-gradient)"/>
    </clipPath>
    <linearGradient id="linear-gradient-4" x1="0.386" y1="0.573" x2="0.579" y2="0.648" gradientUnits="objectBoundingBox">
      <stop offset="0" stop-color="#fff" stop-opacity="0.8"/>
      <stop offset="1" stop-color="#fff" stop-opacity="0.078"/>
    </linearGradient>
    <filter id="转账_1_" x="11.375" y="5.265" width="32.172" height="30.715" filterUnits="userSpaceOnUse">
      <feOffset dy="1" input="SourceAlpha"/>
      <feGaussianBlur stdDeviation="2" result="blur-2"/>
      <feFlood flood-color="#b1790a"/>
      <feComposite operator="in" in2="blur-2"/>
      <feComposite in="SourceGraphic"/>
    </filter>
  </defs>
  <g id="组_49324" data-name="组 49324" transform="translate(9 1.879)">
    <g transform="matrix(1, 0, 0, 1, -9, -1.88)" filter="url(#路径_64013)">
      <path id="路径_64013-2" data-name="路径 64013" d="M18.462,0A18.555,18.555,0,1,1,0,18.555,18.508,18.508,0,0,1,18.462,0Z" transform="translate(9 4)" fill="url(#linear-gradient-2)"/>
    </g>
    <ellipse id="椭圆_351" data-name="椭圆 351" cx="18.462" cy="18.555" rx="18.462" ry="18.555" fill="url(#linear-gradient)"/>
    <g id="蒙版组_18" data-name="蒙版组 18" clip-path="url(#clip-path)">
      <path id="路径_83224" data-name="路径 83224" d="M30.963-3.433.225,43.983H37.4V-3.433Z" transform="translate(0.035 -0.558)" fill="url(#linear-gradient-4)"/>
      <g transform="matrix(1, 0, 0, 1, -9, -1.88)" filter="url(#转账_1_)">
        <path id="转账_1_2" data-name="转账 (1)" d="M149.341,177.817h-6.346a.339.339,0,0,1-.247-.568l6.011-6.491a.336.336,0,0,1,.582.231v4.148a.336.336,0,0,0,.337.337h12.379a.337.337,0,0,1,.337.338v1.666a.337.337,0,0,1-.337.338Zm5.934,4.385h6.346a.339.339,0,0,1,.247.568l-6.011,6.491a.336.336,0,0,1-.582-.231v-4.139a.338.338,0,0,0-.337-.338H142.559a.338.338,0,0,1-.337-.337v-1.676a.337.337,0,0,1,.337-.338h12.716Z" transform="translate(-124.85 -160.39)" fill="#fff" opacity="0.996"/>
      </g>
    </g>
  </g>
</svg>
