<svg xmlns="http://www.w3.org/2000/svg" width="26" height="26" viewBox="0 0 26 26">
    <path d="M4.875 25.99A4.876 4.876 0 0 1 0 21.113v-9.741a1.625 1.625 0 1 1 3.25 0v9.75a1.625 1.625 0 0 0 1.625 1.626h16.25a1.625 1.625 0 0 0 1.625-1.626v-9.74a1.625 1.625 0 1 1 3.25 0v9.741A4.876 4.876 0 0 1 21.125 26zm6.5-9.746V5.55l-2.1 2.1a1.625 1.625 0 0 1-2.3-2.3L11.851.477a1.624 1.624 0 0 1 2.3 0l4.5 4.494a1.625 1.625 0 1 1-2.3 2.294l-1.726-1.712v10.692a1.625 1.625 0 1 1-3.25 0z" style="fill:#8d8d8d"/>
</svg>
