<svg xmlns="http://www.w3.org/2000/svg" width="24.001" height="24" viewBox="0 0 24.001 24">
  <path id="USDT_icon" d="M7586-3720a11.922,11.922,0,0,1-8.486-3.515A11.92,11.92,0,0,1,7574-3732a11.917,11.917,0,0,1,3.517-8.485A11.923,11.923,0,0,1,7586-3744a11.919,11.919,0,0,1,8.484,3.513A11.913,11.913,0,0,1,7598-3732a11.916,11.916,0,0,1-3.516,8.485A11.921,11.921,0,0,1,7586-3720Zm-1.428-15.2v1.813c-3.388.147-5.846.816-5.846,1.592s2.458,1.444,5.846,1.6v5.787h2.75v-5.787c3.421-.148,5.9-.821,5.9-1.6s-2.483-1.445-5.9-1.592v-1.813h4.311v-2.748H7580.26v2.748Zm1.4,4.458c-3.558,0-6.453-.567-6.453-1.264,0-.583,2.126-1.1,5.055-1.226v2.065h2.75v-2.065c2.962.118,5.112.634,5.112,1.226,0,.694-2.9,1.261-6.465,1.261Z" transform="translate(-7574 3744)" fill="#fff"/>
</svg>
