<svg xmlns="http://www.w3.org/2000/svg" width="15" height="15" viewBox="0 0 15 15">
  <path id="videogames_icon" d="M15.45,5.65a8.311,8.311,0,0,0-1.6-2.45,6.971,6.971,0,0,0-2.4-1.6A7.427,7.427,0,0,0,3.2,3.2,6.971,6.971,0,0,0,1.6,5.6,7.35,7.35,0,0,0,1,8.5a7.812,7.812,0,0,0,.55,2.85,8.754,8.754,0,0,0,1.6,2.4,6.971,6.971,0,0,0,2.4,1.6A6.839,6.839,0,0,0,8.5,16a7.614,7.614,0,0,0,2.85-.55,8.755,8.755,0,0,0,2.4-1.6,6.971,6.971,0,0,0,1.6-2.4A7,7,0,0,0,16,8.5a7.812,7.812,0,0,0-.55-2.85Zm-1.15-.1-1.4.55a4.531,4.531,0,0,0-.55-.8L13.4,4.25A7.55,7.55,0,0,1,14.3,5.55ZM11.45,2.7a7.261,7.261,0,0,1,1.3.85L11.7,4.6a4.531,4.531,0,0,0-.8-.55ZM9,2.05a6.641,6.641,0,0,1,1.5.3l-.6,1.4a5.311,5.311,0,0,0-.95-.2V2.05Zm-1,0v1.5a6.43,6.43,0,0,0-.95.2L6.5,2.3A4.713,4.713,0,0,1,8,2.05ZM5.55,2.7,6.1,4.1a4.531,4.531,0,0,0-.8.55l-1-1.1A7.818,7.818,0,0,1,5.55,2.7Zm-2,1.6L4.6,5.35a4.531,4.531,0,0,0-.55.8L2.65,5.6a9.743,9.743,0,0,1,.9-1.3ZM2.3,6.5l1.4.6a5.311,5.311,0,0,0-.2.95H2A6.558,6.558,0,0,1,2.3,6.5ZM2.05,9h1.5a6.43,6.43,0,0,0,.2.95L2.3,10.5A4.713,4.713,0,0,1,2.05,9Zm.65,2.45,1.4-.55a4.531,4.531,0,0,0,.55.8L3.6,12.75a7.55,7.55,0,0,1-.9-1.3ZM5.55,14.3a7.261,7.261,0,0,1-1.3-.85L5.3,12.4a4.531,4.531,0,0,0,.8.55ZM8,14.95a6.641,6.641,0,0,1-1.5-.3l.6-1.4a5.311,5.311,0,0,0,.95.2v1.5ZM7.5,11a.968.968,0,0,1,.5-.85v-.8A1.168,1.168,0,0,1,7.65,9h-.8A.968.968,0,0,1,6,9.5a1,1,0,1,1,0-2,.968.968,0,0,1,.85.5h.8A1.168,1.168,0,0,1,8,7.65v-.8A.968.968,0,0,1,7.5,6a1,1,0,1,1,2,0,.968.968,0,0,1-.5.85v.8A1.168,1.168,0,0,1,9.35,8h.8A.968.968,0,0,1,11,7.5a1,1,0,1,1,0,2,.968.968,0,0,1-.85-.5h-.8A1.168,1.168,0,0,1,9,9.35v.8a.968.968,0,0,1,.5.85,1,1,0,1,1-2,0ZM9,14.95v-1.5a6.43,6.43,0,0,0,.95-.2l.6,1.4a4.074,4.074,0,0,1-1.55.3Zm2.45-.65-.55-1.4a4.531,4.531,0,0,0,.8-.55l1.05,1.05a7.55,7.55,0,0,1-1.3.9Zm2-1.6L12.4,11.65a4.531,4.531,0,0,0,.55-.8l1.4.55a9.743,9.743,0,0,1-.9,1.3Zm1.25-2.2-1.4-.6a5.311,5.311,0,0,0,.2-.95H15a6.558,6.558,0,0,1-.3,1.55ZM13.45,8a6.43,6.43,0,0,0-.2-.95l1.4-.6a7.972,7.972,0,0,1,.3,1.5h-1.5Z" transform="translate(-1 -1)" fill="#fff"/>
</svg>
