<svg xmlns="http://www.w3.org/2000/svg" width="32" height="32" viewBox="0 0 32 32">
  <g id="组_49480" data-name="组 49480" transform="translate(-96 -626)">
    <rect id="矩形_17626" data-name="矩形 17626" width="32" height="32" transform="translate(96 626)" fill="none"/>
    <path id="福利" d="M144.6,97.672a3.357,3.357,0,0,1,6.458,0,16.836,16.836,0,0,0,4.366-1.5V88.358a1.343,1.343,0,0,0-1.31-1.375H141.548a1.343,1.343,0,0,0-1.31,1.375v7.815a16.837,16.837,0,0,0,4.366,1.5Zm6.6,1.65a3.385,3.385,0,0,1-6.74,0,18.315,18.315,0,0,1-4.225-1.336v6.322a1.343,1.343,0,0,0,1.31,1.375h12.571a1.343,1.343,0,0,0,1.31-1.375V97.986A18.315,18.315,0,0,1,151.2,99.322Zm-9.656-13.989h12.571A2.956,2.956,0,0,1,157,88.358v15.95a2.956,2.956,0,0,1-2.881,3.025H141.548a2.956,2.956,0,0,1-2.881-3.025V88.358A2.956,2.956,0,0,1,141.548,85.333Zm6.286,15.4A1.927,1.927,0,1,0,146,98.808,1.881,1.881,0,0,0,147.834,100.733Z" transform="translate(-35.833 545.667)" fill="#8c5f06"/>
  </g>
</svg>
