<svg xmlns="http://www.w3.org/2000/svg" width="32" height="32" viewBox="0 0 32 32">
  <g id="组_49480" data-name="组 49480" transform="translate(-96 -626)">
    <rect id="矩形_17626" data-name="矩形 17626" width="32" height="32" transform="translate(96 626)" fill="none"/>
    <g id="禮金升級" transform="translate(-87.905 568.521)">
      <path id="路径_83235" data-name="路径 83235" d="M193.513,71.98h4.147V78.21a.788.788,0,0,0,1.575,0V71.225a.771.771,0,0,0-.788-.754h-3.2l5.573-6.1,5.767,6.1h-3.231a.771.771,0,0,0-.788.754V78.21a.788.788,0,0,0,1.575,0V71.972h4.219a.79.79,0,0,0,.72-.448.729.729,0,0,0-.136-.812l-7.553-7.986a.811.811,0,0,0-1.177.01l-7.3,7.993a.729.729,0,0,0-.124.808A.79.79,0,0,0,193.513,71.98Z" transform="translate(-1.043)" fill="#8c5f06"/>
      <path id="路径_83236" data-name="路径 83236" d="M192.443,769.223h14.925a.755.755,0,1,0,0-1.508H192.443a.755.755,0,1,0,0,1.508Z" transform="translate(0 -687.914)" fill="#8c5f06"/>
      <path id="路径_83237" data-name="路径 83237" d="M207.367,896.729H192.443a.755.755,0,1,0,0,1.508h14.925a.755.755,0,1,0,0-1.508Z" transform="translate(0 -813.759)" fill="#8c5f06"/>
    </g>
  </g>
</svg>
