<svg id="组_48364" data-name="组 48364" xmlns="http://www.w3.org/2000/svg" width="22" height="22" viewBox="0 0 22 22">
  <rect id="矩形_15156" data-name="矩形 15156" width="22" height="22" fill="#fff" opacity="0"/>
  <g id="钱包" transform="translate(3 2.407)">
    <path id="路径_64007" data-name="路径 64007" d="M78.986,125.655a1.214,1.214,0,0,1,.175.015,1.114,1.114,0,0,0-.553-.28L67.24,123.261a1.253,1.253,0,0,0-1.391,1.18l-.166,1.216h13.3Zm1.214,2.092a1.33,1.33,0,0,0-1.214-1.423H65.414a1.33,1.33,0,0,0-1.214,1.423v10.074a1.33,1.33,0,0,0,1.214,1.423h13.57a1.33,1.33,0,0,0,1.214-1.423v-2.705H75.5a2.57,2.57,0,0,1,0-5.076h4.7v-2.293Z" transform="translate(-64.2 -123.243)" fill="#816c4b"/>
  </g>
</svg>
