<svg xmlns="http://www.w3.org/2000/svg" xmlns:xlink="http://www.w3.org/1999/xlink" width="50" height="50.162" viewBox="0 0 50 50.162">
  <defs>
    <linearGradient id="linear-gradient" x1="0.827" y1="0.619" x2="1" y2="0.957" gradientUnits="objectBoundingBox">
      <stop offset="0" stop-color="#f9df7b"/>
      <stop offset="1" stop-color="#fffbe1"/>
    </linearGradient>
    <linearGradient id="linear-gradient-2" x1="0.917" y1="0.402" x2="0.197" y2="0.614" gradientUnits="objectBoundingBox">
      <stop offset="0" stop-color="#8c5f06"/>
      <stop offset="0.562" stop-color="#fff3a6"/>
      <stop offset="1" stop-color="#8c5f06"/>
    </linearGradient>
    <filter id="路径_64013" x="0" y="0" width="50" height="50.162" filterUnits="userSpaceOnUse">
      <feOffset dy="5" input="SourceAlpha"/>
      <feGaussianBlur stdDeviation="3" result="blur"/>
      <feFlood flood-color="#795810" flood-opacity="0.235"/>
      <feComposite operator="in" in2="blur"/>
      <feComposite in="SourceGraphic"/>
    </filter>
    <clipPath id="clip-path">
      <ellipse id="椭圆_384" data-name="椭圆 384" cx="16" cy="16.081" rx="16" ry="16.081" fill="url(#linear-gradient)"/>
    </clipPath>
    <linearGradient id="linear-gradient-4" x1="0.386" y1="0.573" x2="0.579" y2="0.648" gradientUnits="objectBoundingBox">
      <stop offset="0" stop-color="#fff" stop-opacity="0.8"/>
      <stop offset="1" stop-color="#fff" stop-opacity="0.078"/>
    </linearGradient>
    <filter id="路径_83245" x="10.395" y="4.743" width="25.884" height="26.873" filterUnits="userSpaceOnUse">
      <feOffset dy="1" input="SourceAlpha"/>
      <feGaussianBlur stdDeviation="2" result="blur-2"/>
      <feFlood flood-color="#b1790a"/>
      <feComposite operator="in" in2="blur-2"/>
      <feComposite in="SourceGraphic"/>
    </filter>
    <filter id="路径_83246" x="17.226" y="13.609" width="22.378" height="20.134" filterUnits="userSpaceOnUse">
      <feOffset dy="1" input="SourceAlpha"/>
      <feGaussianBlur stdDeviation="2" result="blur-3"/>
      <feFlood flood-color="#b1790a"/>
      <feComposite operator="in" in2="blur-3"/>
      <feComposite in="SourceGraphic"/>
    </filter>
  </defs>
  <g id="组_49127" data-name="组 49127" transform="translate(9 2.162)">
    <g transform="matrix(1, 0, 0, 1, -9, -2.16)" filter="url(#路径_64013)">
      <path id="路径_64013-2" data-name="路径 64013" d="M16,0A16.081,16.081,0,1,1,0,16.081,16.041,16.041,0,0,1,16,0Z" transform="translate(9 4)" fill="url(#linear-gradient-2)"/>
    </g>
    <ellipse id="椭圆_351" data-name="椭圆 351" cx="16" cy="16.081" rx="16" ry="16.081" fill="url(#linear-gradient)"/>
    <g id="蒙版组_18" data-name="蒙版组 18" clip-path="url(#clip-path)">
      <path id="路径_83224" data-name="路径 83224" d="M26.865-3.433.225,37.35H32.439V-3.433Z" fill="url(#linear-gradient-4)"/>
    </g>
    <g id="Account_银行_账号_帐户_财务_对公业务_税务" data-name="Account，银行，账号，帐户，财务，对公业务，税务" transform="translate(-38.112 -26.538)">
      <g transform="matrix(1, 0, 0, 1, 29.11, 24.38)" filter="url(#路径_83245)">
        <path id="路径_83245-2" data-name="路径 83245" d="M46.209,39.98a.371.371,0,0,1,.37-.37h1.1a.371.371,0,0,1,.37.37v5.365a.371.371,0,0,1-.37.37h-1.1a.371.371,0,0,1-.37-.37Zm10.506,0a.371.371,0,0,1,.37-.37h1.1a.371.371,0,0,1,.37.37v1.584a.371.371,0,0,1-.37.37h-1.1a.371.371,0,0,1-.37-.37Zm-3.557,0a.371.371,0,0,1,.37-.37h1.1a.371.371,0,0,1,.37.37v1.584a.371.371,0,0,1-.37.37h-1.1a.371.371,0,0,1-.37-.37Zm-3.557,0a.371.371,0,0,1,.37-.37h1.1a.371.371,0,0,1,.37.37v5.365a.371.371,0,0,1-.37.37h-1.1a.371.371,0,0,1-.37-.37Zm-4.094,7.425a.371.371,0,0,1,.37-.37h5.209a.371.371,0,0,1,.37.37v1.217a.371.371,0,0,1-.37.37H45.877a.371.371,0,0,1-.37-.37Zm8.307-12.98a2.474,2.474,0,0,0-.66-.307l-1.606.01a2.473,2.473,0,0,0-.656.315l-5.28,3.811c-.165.119-.133.217.07.217l13.534.014c.2,0,.234-.1.067-.212l-5.468-3.847Z" transform="translate(-29.11 -24.38)" fill="#fff"/>
      </g>
      <g transform="matrix(1, 0, 0, 1, 29.11, 24.38)" filter="url(#路径_83246)">
        <path id="路径_83246-2" data-name="路径 83246" d="M428.031,532.344h10.376V531.7a1.1,1.1,0,0,0-1.1-1.1l-8.178,0a1.1,1.1,0,0,0-1.1,1.1m10.376,2.383H428.031v3.551a1.1,1.1,0,0,0,1.1,1.1l8.178,0a1.1,1.1,0,0,0,1.1-1.1" transform="translate(-404.8 -511.99)" fill="#fff"/>
      </g>
    </g>
  </g>
</svg>
